<svg xmlns="http://www.w3.org/2000/svg" xml:space="preserve" viewBox="205 200 600 600">
  <defs>
    <!-- Refined gradient: top-left to bottom-right -->
    <linearGradient id="eg-gradient" x1="0%" y1="0%" x2="100%" y2="100%">
      <stop offset="0%" stop-color="#0a35f9"/>
      <stop offset="50%" stop-color="#415fff"/>
      <stop offset="100%" stop-color="#a93ff6"/>
    </linearGradient>

    <!-- Inner edge stroke simulation (very thin and light) -->
    <linearGradient id="inner-stroke" x1="0%" y1="0%" x2="100%" y2="100%">
      <stop offset="0%" stop-color="#3b7fff" stop-opacity="0.6"/>
      <stop offset="100%" stop-color="#ffffff" stop-opacity="0"/>
    </linearGradient>
  </defs>

  <!-- Optional subtle inner edge stroke for added definition -->
  <path
    d="M363 303a242 242 0 0 1 180-62l58 2 27 1c4 0 7-1 11-4 10-8 21-13 33-16 28-5 57 9 72 34a67 67 0 0 1-117 68l-5-8c-4-7-11-11-19-11-27 0-53-1-80 1-42 1-79 16-111 44-28 25-47 56-60 90-4 11 2 21 15 22h144c9 0 17-4 24-11 18-21 42-29 69-22 27 8 43 26 49 54 7 33-15 70-53 77-27 6-49-3-67-24-6-7-14-10-23-11H373c-12 0-28 12-23 30 8 30 23 55 44 77a180 180 0 0 0 124 57l87-1c9-1 16-4 21-12 9-12 19-22 33-28 40-17 85 9 92 51 7 37-18 72-56 78-19 3-38-1-52-14-9-8-19-8-29-7h-4l-95 1c-41 0-79-10-115-31a251 251 0 0 1-118-173c-2-7-5-14-10-19a52 52 0 0 1-16-37c0-14 4-27 14-37 7-7 11-15 13-25 10-43 30-82 60-115l20-19z"
    fill="url(#eg-gradient)"
  />

  <!-- Inner highlight stroke for polish (useful only on larger render sizes) -->
  <path
    d="M363 303a242 242 0 0 1 180-62l58 2 27 1c4 0 7-1 11-4 10-8 21-13 33-16 28-5 57 9 72 34a67 67 0 0 1-117 68l-5-8c-4-7-11-11-19-11-27 0-53-1-80 1-42 1-79 16-111 44-28 25-47 56-60 90-4 11 2 21 15 22h144c9 0 17-4 24-11 18-21 42-29 69-22 27 8 43 26 49 54 7 33-15 70-53 77-27 6-49-3-67-24-6-7-14-10-23-11H373c-12 0-28 12-23 30 8 30 23 55 44 77a180 180 0 0 0 124 57l87-1c9-1 16-4 21-12 9-12 19-22 33-28 40-17 85 9 92 51 7 37-18 72-56 78-19 3-38-1-52-14-9-8-19-8-29-7h-4l-95 1c-41 0-79-10-115-31a251 251 0 0 1-118-173c-2-7-5-14-10-19a52 52 0 0 1-16-37c0-14 4-27 14-37 7-7 11-15 13-25 10-43 30-82 60-115l20-19z"
    fill="none"
    stroke="url(#inner-stroke)"
    stroke-width="2.5"
  />
</svg>
