<svg xmlns="http://www.w3.org/2000/svg" version="1.1" xmlns:xlink="http://www.w3.org/1999/xlink" xmlns:svgjs="http://svgjs.dev/svgjs" width="724" height="724"><svg viewBox="150 150 724 724" fill="#155dfc">
  <path d="M487 190c-45 4-87 19-126 44l-9 6-5-2c-6-3-16-3-23-1-13 4-23 18-21 32v6l-8 6a288 288 0 0 0-99 216 293 293 0 0 0 64 192l6 8-1 4c-3 6-3 17 0 23 3 8 8 13 15 17 5 2 7 2 15 2h10l7 8a286 286 0 0 0 236 81c61-9 118-36 161-78l11-11 8 1c10 0 18-2 25-9 8-9 11-21 7-33l-2-5 7-8a293 293 0 0 0 63-185c0-84-31-158-93-217l-14-14v-7c0-12-6-23-18-28-7-3-18-3-25 0l-6 3-6-4a274 274 0 0 0-179-47zm54 22a234 234 0 0 1 110 40l-14 3a396 396 0 0 0-125 45l-14-7a361 361 0 0 0-126-41 279 279 0 0 1 169-41zm-157 64a394 394 0 0 1 107 37l-14 10a573 573 0 0 0-141 138 255 255 0 0 1-4-149c2-10 3-10 6-11 14-1 25-10 28-23l1-5 4 1 13 2zm274 2c3 13 15 23 28 23 3 0 4 2 8 17 6 21 7 33 7 62 1 31-2 48-10 75l-2 7-9-12a608 608 0 0 0-148-136 354 354 0 0 1 121-41h3l2 5zm-344 19-2 8a290 290 0 0 0 5 167l4 12-3 4c-9 13-27 49-34 69a217 217 0 0 0-14 111l-15-20a294 294 0 0 1-36-184 279 279 0 0 1 95-170v3zm413 12a276 276 0 0 1 50 323c-7 14-16 30-20 34l-2 3 1-3v-47c-4-37-20-81-46-123l-7-12 5-14c5-16 10-34 13-51a259 259 0 0 0-11-123c-2-5 3-1 17 13zm-202 25c56 37 110 88 147 141l9 12-9 17a531 531 0 0 1-133 171l-27 19a383 383 0 0 1-117-116c-17-25-39-63-49-86l-2-5 6-9a581 581 0 0 1 161-152l14 8zM337 523a499 499 0 0 0 156 184l-13 7c-33 15-70 23-99 20-16-1-32-5-45-10l-11-4v-9c-1-10-2-15-9-22-5-5-11-8-18-9-5 0-5 0-6-5-2-7-4-26-4-33a256 256 0 0 1 43-133l6 14zm366 4c30 56 39 102 30 145-2 8-2 8-7 8-10 1-19 8-24 18-2 4-2 6-3 13l-1 10c-3 2-27 9-38 11a195 195 0 0 1-123-22c-7-3-7-3-6-4l11-8a512 512 0 0 0 153-187l8 16zM521 725a219 219 0 0 0 163 24l-9 8c-36 27-76 45-116 52-26 5-61 5-86 1a297 297 0 0 1-135-62l10 2a182 182 0 0 0 93 0c20-5 47-16 65-26l6-4 9 5z"></path>
  <path d="m478 412-47 27c-9 5-17 10-18 12l-3 2 1 56c0 54 0 56 2 58 1 2 16 11 83 50 16 10 16 10 36-1l45-27c17-10 32-19 33-21l3-3v-56c-1-55-1-57-3-59l-21-13-47-27-30-16-34 18z"></path>
</svg><style>@media (prefers-color-scheme: light) { :root { filter: none; } }
@media (prefers-color-scheme: dark) { :root { filter: none; } }
</style></svg>