<svg xmlns="http://www.w3.org/2000/svg" xmlns:xlink="http://www.w3.org/1999/xlink" xmlns:lucid="lucid" width="1546" height="692"><g transform="translate(465 -84)" lucid:page-tab-id="0_0"><path d="M-1000 0h2500v2000h-2500z" fill="#fff"/><path d="M-60 133.97a6 6 0 0 1 6-6h1088a6 6 0 0 1 6 6V734a6 6 0 0 1-6 6H-54a6 6 0 0 1-6-6z" stroke="#003d87" stroke-width="4" fill="#edf5ff"/><use xlink:href="#a" transform="matrix(1,0,0,1,-55,132.9656493518844) translate(256.640625 25.833333333333336)"/><use xlink:href="#b" transform="matrix(1,0,0,1,-55,132.9656493518844) translate(423.09895833333337 25.833333333333336)"/><use xlink:href="#c" transform="matrix(1,0,0,1,-55,132.9656493518844) translate(571.9661458333334 25.833333333333336)"/><use xlink:href="#d" transform="matrix(1,0,0,1,-55,132.9656493518844) translate(657.1875 25.833333333333336)"/><path d="M655.6 323.97a6 6 0 0 1 6-6H994a6 6 0 0 1 6 6v114c-57.52-20.04-93.34-20.04-115.03-20.04-34.44 0-80.25 20.04-114.7 20.04-21.35 0-57.5 0-114.68-20.04z" stroke="#54c45e" stroke-width="4" fill="#c3f7c8"/><use xlink:href="#e" transform="matrix(1,0,0,1,660.5903289583589,322.9656493518844) translate(45.097656249999986 53.958333333333336)"/><path d="M655.6 459.4a6 6 0 0 1 6-6H994a6 6 0 0 1 6 6v114c-57.52-20.05-93.34-20.05-115.03-20.05-34.44 0-80.25 20.04-114.7 20.04-21.35 0-57.5 0-114.68-20.05z" stroke="#fcce14" stroke-width="4" fill="#fff3d9"/><use xlink:href="#f" transform="matrix(1,0,0,1,660.5903289583589,458.38823913355645) translate(66.05468749999999 53.958333333333336)"/><path d="M346.16 327.8h57.72a6 6 0 0 0 6-6v-72.1a6 6 0 0 1 6-6h36.97" stroke="#3a414a" stroke-width="4" fill="none"/><path d="M346.2 329.76h-2.3l.24-1 .07-2.95h2z" stroke="#3a414a" stroke-width=".05" fill="#3a414a"/><path d="M469.12 243.7l-14.27 4.62v-9.27z" stroke="#3a414a" stroke-width="4" fill="#3a414a"/><path d="M321.55 377.97h131.3" stroke="#3a414a" stroke-width="4" fill="none"/><path d="M321.6 379.94h-2.22l.22-1.23-.2-2.7h2.2z" stroke="#3a414a" stroke-width=".05" fill="#3a414a"/><path d="M469.12 377.97l-14.27 4.63v-9.27z" stroke="#3a414a" stroke-width="4" fill="#3a414a"/><path d="M346.04 433.1h57.78a6 6 0 0 1 6 6v68.3a6 6 0 0 0 6 6h37.03" stroke="#3a414a" stroke-width="4" fill="none"/><path d="M346.1 435.1h-2.46l.4-2-.1-1.96h2.15z" stroke="#3a414a" stroke-width=".05" fill="#3a414a"/><path d="M469.12 513.4L454.85 518v-9.27z" stroke="#3a414a" stroke-width="4" fill="#3a414a"/><path d="M475.6 228.55a6 6 0 0 1 6-6h127.84a6 6 0 0 1 6 6v30.28a6 6 0 0 1-6 6H481.6a6 6 0 0 1-6-6z" fill="none"/><use xlink:href="#g" transform="matrix(1,0,0,1,480.59032895835867,227.55098958336748) translate(0 26.200520833333336)"/><path d="M617.44 242.54h13.4" stroke="#3a414a" stroke-width="4" fill="none"/><path d="M617.5 244.52h-2.06v-3.95h2.05z" stroke="#3a414a" stroke-width=".05" fill="#3a414a"/><path d="M647.12 242.54l-14.27 4.64v-9.27z" stroke="#3a414a" stroke-width="4" fill="#3a414a"/><path d="M475.6 362.83a6 6 0 0 1 6-6h127.84a6 6 0 0 1 6 6v30.27a6 6 0 0 1-6 6H481.6a6 6 0 0 1-6-6z" fill="none"/><use xlink:href="#g" transform="matrix(1,0,0,1,480.59032895835867,361.8278368518844) translate(0 26.200520833333336)"/><path d="M475.6 498.25a6 6 0 0 1 6-6h127.84a6 6 0 0 1 6 6v30.28a6 6 0 0 1-6 6H481.6a6 6 0 0 1-6-6z" fill="none"/><use xlink:href="#g" transform="matrix(1,0,0,1,480.59032895835867,497.25042663355646) translate(0 26.200520833333336)"/><path d="M617.44 377.97h13.4" stroke="#3a414a" stroke-width="4" fill="none"/><path d="M617.5 379.94h-2.06V376h2.05z" stroke="#3a414a" stroke-width=".05" fill="#3a414a"/><path d="M647.12 377.97l-14.27 4.63v-9.27z" stroke="#3a414a" stroke-width="4" fill="#3a414a"/><path d="M-20 326a6 6 0 0 1 6-6h148a6 6 0 0 1 6 6v114c-26.72-20.04-43.36-20.04-53.44-20.04-16 0-37.28 20.04-53.28 20.04-9.92 0-26.72 0-53.28-20.04z" stroke="#fe7070" stroke-width="4" fill="#ffd9d9"/><use xlink:href="#h" transform="matrix(1,0,0,1,-15,325) translate(8.287760416666657 53.958333333333336)"/><path d="M655.6 188.54a6 6 0 0 1 6-6H994a6 6 0 0 1 6 6v114c-57.52-20.04-93.34-20.04-115.03-20.04-34.44 0-80.25 20.04-114.7 20.04-21.35 0-57.5 0-114.68-20.04z" stroke="#003d87" stroke-width="4" fill="#6db1ff"/><use xlink:href="#i" transform="matrix(1,0,0,1,660.5903289583589,187.54305957021228) translate(28.522135416666686 53.958333333333336)"/><path d="M144 378.98h53.3" stroke="#3a414a" stroke-width="4" fill="none"/><path d="M144.05 380.96H142V377h2.05z" stroke="#3a414a" stroke-width=".05" fill="#3a414a"/><path d="M213.56 378.98l-14.27 4.64v-9.27z" stroke="#3a414a" stroke-width="4" fill="#3a414a"/><path d="M-286.36 380h63.62" stroke="#3a414a" stroke-width="4" fill="none"/><path d="M-286.3 381.98h-5.06v-3.96h5.05z" stroke="#3a414a" stroke-width=".05" fill="#3a414a"/><path d="M-206.47 380l-14.27 4.63v-9.26z" stroke="#3a414a" stroke-width="4" fill="#3a414a"/><path d="M-200 364.86a6 6 0 0 1 6-6h96.77a6 6 0 0 1 6 6v30.28a6 6 0 0 1-6 6H-194a6 6 0 0 1-6-6z" fill="none"/><use xlink:href="#j" transform="matrix(1,0,0,1,-195,363.8621875) translate(0 26.200520833333336)"/><path d="M-89.23 380h44.5" stroke="#3a414a" stroke-width="4" fill="none"/><path d="M-89.18 381.98h-2.05v-3.96h2.05z" stroke="#3a414a" stroke-width=".05" fill="#3a414a"/><path d="M-28.47 380l-14.27 4.63v-9.26z" stroke="#3a414a" stroke-width="4" fill="#3a414a"/><path d="M246.72 329.4c12.8-11.54 27.84-16.83 45-15.58l14.54.56 6.7.27c1 0 1.75-.27 2.75-.97 2.5-2.1 5.35-3.34 8.33-4.04 6.96-1.25 14.17 2.23 18.03 8.5 4.6 8.07 1.86 18.38-6.22 23.1-8.08 4.74-18.4 1.96-23.12-6.12l-1.24-1.95c-1-1.8-2.73-2.78-4.72-2.78-6.7 0-13.3-.3-20 .27-10.45.14-19.78 3.9-27.73 11-7.1 6.26-11.8 13.92-15.04 22.4-1 2.8.5 5.3 3.72 5.58h36.04c2.24 0 4.23-.97 5.97-2.78 4.47-5.3 10.56-7.24 17.27-5.57 6.72 2.1 10.7 6.54 12.3 13.5 1.75 8.36-3.84 17.55-13.3 19.36-6.7 1.4-12.3-.84-16.77-6-1.5-1.8-3.48-2.5-5.72-2.77h-34.3c-2.97 0-6.95 2.9-5.7 7.5 1.98 7.53 5.7 13.65 11.05 19.22 8.33 9.05 18.65 13.8 30.95 14.2l21.75-.14c2.24-.27 3.98-1.1 5.22-3.06 2.24-3.06 4.73-5.57 8.33-6.96 9.94-4.32 21.26 2.23 23 12.67 1.74 9.33-4.6 18.1-14.05 19.5-4.72.83-9.44-.15-13.05-3.5-2.24-1.94-4.72-1.94-7.2-1.66h-1l-23.74.14c-10.32 0-19.77-2.5-28.7-7.65-16.3-9.88-26.37-24.5-29.6-43.3-.5-1.67-1.24-3.48-2.48-4.73-2.6-2.5-3.98-5.57-3.98-9.2 0-3.6 1-6.82 3.48-9.32 1.74-1.67 2.74-3.76 3.23-6.27 2.5-10.72 7.6-20.47 15.05-28.68l4.97-4.74z" stroke="#000" stroke-opacity="0" stroke-width=".25" fill="url(#k)"/><path d="M246.72 329.4c12.8-11.54 27.84-16.83 45-15.58l14.54.56 6.7.27c1 0 1.75-.27 2.75-.97 2.5-2.1 5.35-3.34 8.33-4.04 6.96-1.25 14.17 2.23 18.03 8.5 4.6 8.07 1.86 18.38-6.22 23.1-8.08 4.74-18.4 1.96-23.12-6.12l-1.24-1.95c-1-1.8-2.73-2.78-4.72-2.78-6.7 0-13.3-.3-20 .27-10.45.14-19.78 3.9-27.73 11-7.1 6.26-11.8 13.92-15.04 22.4-1 2.8.5 5.3 3.72 5.58h36.04c2.24 0 4.23-.97 5.97-2.78 4.47-5.3 10.56-7.24 17.27-5.57 6.72 2.1 10.7 6.54 12.3 13.5 1.75 8.36-3.84 17.55-13.3 19.36-6.7 1.4-12.3-.84-16.77-6-1.5-1.8-3.48-2.5-5.72-2.77h-34.3c-2.97 0-6.95 2.9-5.7 7.5 1.98 7.53 5.7 13.65 11.05 19.22 8.33 9.05 18.65 13.8 30.95 14.2l21.75-.14c2.24-.27 3.98-1.1 5.22-3.06 2.24-3.06 4.73-5.57 8.33-6.96 9.94-4.32 21.26 2.23 23 12.67 1.74 9.33-4.6 18.1-14.05 19.5-4.72.83-9.44-.15-13.05-3.5-2.24-1.94-4.72-1.94-7.2-1.66h-1l-23.74.14c-10.32 0-19.77-2.5-28.7-7.65-16.3-9.88-26.37-24.5-29.6-43.3-.5-1.67-1.24-3.48-2.48-4.73-2.6-2.5-3.98-5.57-3.98-9.2 0-3.6 1-6.82 3.48-9.32 1.74-1.67 2.74-3.76 3.23-6.27 2.5-10.72 7.6-20.47 15.05-28.68l4.97-4.74z" stroke="#000" stroke-opacity="0" stroke-width=".63" fill-opacity="0"/><path d="M-311.8 342.46c0 13.04-10.5 23.52-23.43 23.52-12.94 0-23.43-10.48-23.43-23.52 0-12.92 10.5-23.4 23.43-23.4 12.94 0 23.44 10.48 23.44 23.4m-70.3 88.24c.47-25.84 21.75-46.43 47.62-46.07 25.4.37 45.75 20.72 46.12 46.07-15.47 7.07-29.9 10.24-46.87 10.24-16.68 0-32.62-3.66-46.87-10.24z" stroke="#635dff" stroke-width="4" fill="#9391ff"/><path d="M-420 259.83a6 6 0 0 1 6-6h163.8a6 6 0 0 1 6 6v35.65a6 6 0 0 1-6 6H-414a6 6 0 0 1-6-6z" fill="none"/><use xlink:href="#l" transform="matrix(1,0,0,1,-415,258.82729102584517) translate(0 30.317274305555557)"/><use xlink:href="#m" transform="matrix(1,0,0,1,-415,258.82729102584517) translate(68.31380208333334 30.317274305555557)"/><path d="M655.6 594.8a6 6 0 0 1 6-6H994a6 6 0 0 1 6 6v114c-57.52-20.03-93.34-20.03-115.03-20.03-34.44 0-80.25 20.04-114.7 20.04-21.35 0-57.5 0-114.68-20.03z" stroke="#ba23f6" stroke-width="4" fill="#fbf0ff"/><use xlink:href="#n" transform="matrix(1,0,0,1,660.5903289583589,593.8108289152285) translate(20.546875 53.958333333333336)"/><path d="M325.57 450.53V642.8a6 6 0 0 0 6 6h121.28" stroke="#3a414a" stroke-width="4" fill="none"/><path d="M325.18 448.55l2.36-.12v2.15h-3.95v-2.38z" stroke="#3a414a" stroke-width=".05" fill="#3a414a"/><path d="M469.12 648.8l-14.27 4.65v-9.27z" stroke="#3a414a" stroke-width="4" fill="#3a414a"/><path d="M475.6 633.67a6 6 0 0 1 6-6h127.84a6 6 0 0 1 6 6v30.28a6 6 0 0 1-6 6H481.6a6 6 0 0 1-6-6z" fill="none"/><use xlink:href="#g" transform="matrix(1,0,0,1,480.59032895835867,632.6730164152285) translate(0 26.200520833333336)"/><path d="M617.44 513.4h13.4" stroke="#3a414a" stroke-width="4" fill="none"/><path d="M617.5 515.36h-2.06v-3.95h2.05z" stroke="#3a414a" stroke-width=".05" fill="#3a414a"/><path d="M647.12 513.4L632.85 518v-9.27z" stroke="#3a414a" stroke-width="4" fill="#3a414a"/><path d="M617.44 648.8h13.4" stroke="#3a414a" stroke-width="4" fill="none"/><path d="M617.5 650.8h-2.06v-3.96h2.05z" stroke="#3a414a" stroke-width=".05" fill="#3a414a"/><path d="M647.12 648.8l-14.27 4.65v-9.27z" stroke="#3a414a" stroke-width="4" fill="#3a414a"/><defs><path d="M180 0v-1490h908v168H370v486h669v168H370v500h727V0H180" id="o"/><path d="M338-1490V0H158v-1490h180" id="p"/><path d="M471 26C259 26 90-98 90-318c0-256 228-303 435-329 202-27 287-16 287-108 0-139-79-219-234-219-161 0-248 86-283 164l-173-57c86-203 278-265 451-265 150 0 419 46 419 395V0H815v-152h-12C765-73 660 26 471 26zm31-159c199 0 310-134 310-271v-155c-30 35-226 55-295 64-131 17-246 59-246 186 0 116 97 176 231 176" id="q"/><path d="M538 24C308 24 148-78 108-271l171-41c32 123 123 178 257 178 156 0 256-77 256-169 0-77-54-128-164-154l-186-44c-203-48-300-148-300-305 0-192 176-326 414-326 230 0 351 112 402 269l-163 42c-31-80-94-158-238-158-133 0-233 69-233 162 0 83 57 129 188 160l169 40c203 48 298 149 298 302 0 196-179 339-441 339" id="r"/><path d="M598-1118v154H368v674c0 100 37 144 132 144 23 0 62-6 92-12L629-6c-37 13-88 20-134 20-193 0-307-107-307-290v-688H20v-154h168v-266h180v266h230" id="s"/><path d="M158 0v-1118h180V0H158zm91-1301c-68 0-125-53-125-119s57-119 125-119c69 0 126 53 126 119s-57 119-126 119" id="t"/><path d="M613 24c-304 0-509-231-509-576 0-350 205-580 509-580 216 0 392 114 453 309l-173 49c-33-115-133-197-280-197-223 0-326 196-326 419 0 220 103 415 326 415 150 0 252-85 285-206l172 49C1010-95 832 24 613 24" id="u"/><path d="M789 20c-398 0-667-293-667-764 0-473 273-766 655-766 315 0 558 198 612 487h-196c-61-191-204-311-415-311-262 0-471 207-471 590 0 380 208 588 482 588 249 0 420-165 425-427H828v-166h572v163c0 370-256 606-611 606" id="v"/><path d="M158 0v-1118h174v172h12c41-113 157-188 290-188 26 0 70 2 91 3v181c-11-2-60-10-108-10-161 0-279 109-279 260V0H158" id="w"/><path d="M158 418v-1536h174v179h20c37-59 106-193 324-193 279 0 474 222 474 576 0 356-194 580-473 580-213 0-288-135-325-197h-14v591H158zm492-555c209 0 317-186 317-421 0-232-105-413-317-413-206 0-314 166-314 413 0 249 111 421 314 421" id="x"/><path d="M338-670V0H158v-1490h180v566c73-149 190-208 336-208 226 0 379 139 379 422V0H872v-695c0-172-96-275-252-275-161 0-282 109-282 300" id="y"/><g id="a"><use transform="matrix(0.013020833333333334,0,0,0.013020833333333334,0,0)" xlink:href="#o"/><use transform="matrix(0.013020833333333334,0,0,0.013020833333333334,16.028645833333336,0)" xlink:href="#p"/><use transform="matrix(0.013020833333333334,0,0,0.013020833333333334,22.48697916666667,0)" xlink:href="#q"/><use transform="matrix(0.013020833333333334,0,0,0.013020833333333334,37.46093750000001,0)" xlink:href="#r"/><use transform="matrix(0.013020833333333334,0,0,0.013020833333333334,51.53645833333334,0)" xlink:href="#s"/><use transform="matrix(0.013020833333333334,0,0,0.013020833333333334,60.26041666666668,0)" xlink:href="#t"/><use transform="matrix(0.013020833333333334,0,0,0.013020833333333334,66.71875000000001,0)" xlink:href="#u"/><use transform="matrix(0.013020833333333334,0,0,0.013020833333333334,81.95312500000001,0)" xlink:href="#v"/><use transform="matrix(0.013020833333333334,0,0,0.013020833333333334,101.84895833333334,0)" xlink:href="#w"/><use transform="matrix(0.013020833333333334,0,0,0.013020833333333334,111.88802083333334,0)" xlink:href="#q"/><use transform="matrix(0.013020833333333334,0,0,0.013020833333333334,126.86197916666667,0)" xlink:href="#x"/><use transform="matrix(0.013020833333333334,0,0,0.013020833333333334,143.19010416666669,0)" xlink:href="#y"/></g><path d="M52 0l541-1490h220L1361 0h-200l-149-416H398L254 0H52zm404-582h497c-103-290-145-390-251-756-108 377-145 460-246 756" id="z"/><path d="M613 24c-304 0-509-231-509-576 0-350 205-580 509-580 305 0 511 230 511 580 0 345-206 576-511 576zm0-161c226 0 329-195 329-415 0-222-103-419-329-419-223 0-326 196-326 419 0 220 103 415 326 415" id="A"/><path d="M338-670V0H158v-1118h173l1 207c72-158 192-221 342-221 226 0 378 139 378 422V0H872v-695c0-172-96-275-252-275-161 0-282 109-282 300" id="B"/><g id="b"><use transform="matrix(0.013020833333333334,0,0,0.013020833333333334,0,0)" xlink:href="#z"/><use transform="matrix(0.013020833333333334,0,0,0.013020833333333334,18.3984375,0)" xlink:href="#x"/><use transform="matrix(0.013020833333333334,0,0,0.013020833333333334,34.7265625,0)" xlink:href="#x"/><use transform="matrix(0.013020833333333334,0,0,0.013020833333333334,51.0546875,0)" xlink:href="#p"/><use transform="matrix(0.013020833333333334,0,0,0.013020833333333334,57.513020833333336,0)" xlink:href="#t"/><use transform="matrix(0.013020833333333334,0,0,0.013020833333333334,63.97135416666667,0)" xlink:href="#u"/><use transform="matrix(0.013020833333333334,0,0,0.013020833333333334,79.46614583333334,0)" xlink:href="#q"/><use transform="matrix(0.013020833333333334,0,0,0.013020833333333334,94.44010416666667,0)" xlink:href="#s"/><use transform="matrix(0.013020833333333334,0,0,0.013020833333333334,103.1640625,0)" xlink:href="#t"/><use transform="matrix(0.013020833333333334,0,0,0.013020833333333334,109.62239583333334,0)" xlink:href="#A"/><use transform="matrix(0.013020833333333334,0,0,0.013020833333333334,125.61197916666664,0)" xlink:href="#B"/></g><path d="M218-607c0-325 108-727 258-974h175c-155 315-250 682-250 974 0 265 78 531 250 886H476C306-10 218-315 218-607" id="C"/><path d="M180 0v-1490h190v1322h690V0H180" id="D"/><g id="c"><use transform="matrix(0.013020833333333334,0,0,0.013020833333333334,0,0)" xlink:href="#C"/><use transform="matrix(0.013020833333333334,0,0,0.013020833333333334,9.7265625,0)" xlink:href="#D"/><use transform="matrix(0.013020833333333334,0,0,0.013020833333333334,24.8046875,0)" xlink:href="#A"/><use transform="matrix(0.013020833333333334,0,0,0.013020833333333334,40.794270833333336,0)" xlink:href="#u"/><use transform="matrix(0.013020833333333334,0,0,0.013020833333333334,56.2890625,0)" xlink:href="#q"/><use transform="matrix(0.013020833333333334,0,0,0.013020833333333334,71.26302083333333,0)" xlink:href="#p"/></g><path d="M645 0H180v-1490h484c435 0 692 280 692 742 0 466-257 748-711 748zM370-168h263c363 0 539-218 539-580 0-358-176-574-521-574H370v1154" id="E"/><path d="M628 24c-324 0-524-230-524-574 0-343 198-582 503-582 237 0 487 146 487 559v75H286c9 234 145 362 343 362 132 0 231-58 273-172l174 48C1024-91 857 24 628 24zM287-650h624c-17-190-120-322-304-322-192 0-309 151-320 322" id="F"/><path d="M481 0L54-1118h197c107 314 236 620 325 951 87-331 217-637 324-951h197L670 0H481" id="G"/><path d="M158 0v-1118h175l1 205c55-151 181-225 313-225 147 0 245 90 285 228 53-141 190-228 352-228 194 0 352 125 352 384V0h-181v-749c0-161-105-225-225-225-151 0-243 103-243 244V0H807v-767c0-124-93-207-219-207-131 0-250 92-250 270V0H158" id="H"/><path d="M96 279C273-86 346-350 346-607c0-292-95-659-250-974h175c150 246 258 650 258 974 0 297-91 602-258 886H96" id="I"/><g id="d"><use transform="matrix(0.013020833333333334,0,0,0.013020833333333334,0,0)" xlink:href="#E"/><use transform="matrix(0.013020833333333334,0,0,0.013020833333333334,19.244791666666668,0)" xlink:href="#F"/><use transform="matrix(0.013020833333333334,0,0,0.013020833333333334,34.270833333333336,0)" xlink:href="#G"/><use transform="matrix(0.013020833333333334,0,0,0.013020833333333334,48.73697916666667,0)" xlink:href="#F"/><use transform="matrix(0.013020833333333334,0,0,0.013020833333333334,64.28385416666667,0)" xlink:href="#p"/><use transform="matrix(0.013020833333333334,0,0,0.013020833333333334,70.7421875,0)" xlink:href="#A"/><use transform="matrix(0.013020833333333334,0,0,0.013020833333333334,86.73177083333333,0)" xlink:href="#x"/><use transform="matrix(0.013020833333333334,0,0,0.013020833333333334,103.05989583333333,0)" xlink:href="#H"/><use transform="matrix(0.013020833333333334,0,0,0.013020833333333334,126.41927083333334,0)" xlink:href="#F"/><use transform="matrix(0.013020833333333334,0,0,0.013020833333333334,141.96614583333331,0)" xlink:href="#B"/><use transform="matrix(0.013020833333333334,0,0,0.013020833333333334,157.72135416666666,0)" xlink:href="#s"/><use transform="matrix(0.013020833333333334,0,0,0.013020833333333334,166.4453125,0)" xlink:href="#I"/></g><path d="M157-1118h181V80c1 225-123 350-364 338V252c126 9 184-48 183-172v-1198zm91-183c-68 0-125-53-125-119s57-119 125-119c69 0 126 53 126 119s-57 119-126 119" id="J"/><path d="M934 0v166H0V0h934" id="K"/><path d="M295 13c-75 0-135-60-135-135s60-135 135-135 135 60 135 135S370 13 295 13" id="L"/><path d="M140 405l46-156c120 36 205 19 263-150l32-93L54-1118h197c107 313 237 620 324 950 87-331 219-637 326-950h196L606 167c-68 178-176 259-334 259-64 0-113-12-132-21" id="M"/><g id="e"><use transform="matrix(0.013020833333333334,0,0,0.013020833333333334,0,0)" xlink:href="#J"/><use transform="matrix(0.013020833333333334,0,0,0.013020833333333334,6.458333333333334,0)" xlink:href="#r"/><use transform="matrix(0.013020833333333334,0,0,0.013020833333333334,20.533854166666668,0)" xlink:href="#A"/><use transform="matrix(0.013020833333333334,0,0,0.013020833333333334,36.5234375,0)" xlink:href="#B"/><use transform="matrix(0.013020833333333334,0,0,0.013020833333333334,52.278645833333336,0)" xlink:href="#K"/><use transform="matrix(0.013020833333333334,0,0,0.013020833333333334,64.44010416666667,0)" xlink:href="#r"/><use transform="matrix(0.013020833333333334,0,0,0.013020833333333334,78.515625,0)" xlink:href="#u"/><use transform="matrix(0.013020833333333334,0,0,0.013020833333333334,93.75,0)" xlink:href="#y"/><use transform="matrix(0.013020833333333334,0,0,0.013020833333333334,109.51822916666667,0)" xlink:href="#F"/><use transform="matrix(0.013020833333333334,0,0,0.013020833333333334,125.06510416666667,0)" xlink:href="#H"/><use transform="matrix(0.013020833333333334,0,0,0.013020833333333334,148.42447916666669,0)" xlink:href="#q"/><use transform="matrix(0.013020833333333334,0,0,0.013020833333333334,163.39843750000003,0)" xlink:href="#r"/><use transform="matrix(0.013020833333333334,0,0,0.013020833333333334,177.47395833333337,0)" xlink:href="#L"/><use transform="matrix(0.013020833333333334,0,0,0.013020833333333334,185.15625000000003,0)" xlink:href="#M"/><use transform="matrix(0.013020833333333334,0,0,0.013020833333333334,200.01302083333334,0)" xlink:href="#q"/><use transform="matrix(0.013020833333333334,0,0,0.013020833333333334,214.98697916666669,0)" xlink:href="#H"/><use transform="matrix(0.013020833333333334,0,0,0.013020833333333334,238.34635416666669,0)" xlink:href="#p"/></g><path d="M611 442c-248 0-391-105-460-228l146-94c47 65 117 165 314 165 178 0 307-82 307-266v-224h-17C863-141 792-18 576-18c-268 0-472-195-472-546 0-346 197-568 476-568 216 0 288 133 326 193h17v-179h175V29c0 289-215 413-487 413zm-5-620c203 0 314-146 314-390 0-237-108-403-314-403-213 0-319 180-319 403 0 230 109 390 319 390" id="N"/><path d="M1096 418H916v-591h-14C865-111 790 24 577 24c-279 0-473-224-473-580 0-354 195-576 474-576 218 0 287 134 324 193h20v-179h174V418zM604-137c203 0 314-172 314-421 0-247-108-413-314-413-212 0-317 181-317 413 0 235 108 421 317 421" id="O"/><g id="f"><use transform="matrix(0.013020833333333334,0,0,0.013020833333333334,0,0)" xlink:href="#r"/><use transform="matrix(0.013020833333333334,0,0,0.013020833333333334,14.075520833333334,0)" xlink:href="#u"/><use transform="matrix(0.013020833333333334,0,0,0.013020833333333334,29.309895833333336,0)" xlink:href="#y"/><use transform="matrix(0.013020833333333334,0,0,0.013020833333333334,45.078125,0)" xlink:href="#F"/><use transform="matrix(0.013020833333333334,0,0,0.013020833333333334,60.625,0)" xlink:href="#H"/><use transform="matrix(0.013020833333333334,0,0,0.013020833333333334,83.984375,0)" xlink:href="#q"/><use transform="matrix(0.013020833333333334,0,0,0.013020833333333334,98.95833333333333,0)" xlink:href="#L"/><use transform="matrix(0.013020833333333334,0,0,0.013020833333333334,106.640625,0)" xlink:href="#N"/><use transform="matrix(0.013020833333333334,0,0,0.013020833333333334,122.99479166666667,0)" xlink:href="#w"/><use transform="matrix(0.013020833333333334,0,0,0.013020833333333334,133.03385416666669,0)" xlink:href="#q"/><use transform="matrix(0.013020833333333334,0,0,0.013020833333333334,148.00781250000003,0)" xlink:href="#x"/><use transform="matrix(0.013020833333333334,0,0,0.013020833333333334,164.33593750000003,0)" xlink:href="#y"/><use transform="matrix(0.013020833333333334,0,0,0.013020833333333334,180.10416666666669,0)" xlink:href="#O"/><use transform="matrix(0.013020833333333334,0,0,0.013020833333333334,196.43229166666669,0)" xlink:href="#p"/></g><g id="g"><use transform="matrix(0.013020833333333334,0,0,0.013020833333333334,0,0)" xlink:href="#v"/><use transform="matrix(0.013020833333333334,0,0,0.013020833333333334,19.895833333333336,0)" xlink:href="#F"/><use transform="matrix(0.013020833333333334,0,0,0.013020833333333334,35.442708333333336,0)" xlink:href="#B"/><use transform="matrix(0.013020833333333334,0,0,0.013020833333333334,51.19791666666667,0)" xlink:href="#F"/><use transform="matrix(0.013020833333333334,0,0,0.013020833333333334,66.74479166666667,0)" xlink:href="#w"/><use transform="matrix(0.013020833333333334,0,0,0.013020833333333334,76.78385416666667,0)" xlink:href="#q"/><use transform="matrix(0.013020833333333334,0,0,0.013020833333333334,91.7578125,0)" xlink:href="#s"/><use transform="matrix(0.013020833333333334,0,0,0.013020833333333334,100.22135416666666,0)" xlink:href="#F"/><use transform="matrix(0.013020833333333334,0,0,0.013020833333333334,115.76822916666664,0)" xlink:href="#r"/></g><path d="M677 24c-213 0-288-135-325-197h-20V0H158v-1490h180v551h14c37-59 106-193 324-193 279 0 474 222 474 576 0 356-194 580-473 580zm-27-161c209 0 317-186 317-421 0-232-105-413-317-413-206 0-314 166-314 413 0 249 111 421 314 421" id="P"/><g id="h"><use transform="matrix(0.013020833333333334,0,0,0.013020833333333334,0,0)" xlink:href="#r"/><use transform="matrix(0.013020833333333334,0,0,0.013020833333333334,14.075520833333334,0)" xlink:href="#u"/><use transform="matrix(0.013020833333333334,0,0,0.013020833333333334,29.309895833333336,0)" xlink:href="#y"/><use transform="matrix(0.013020833333333334,0,0,0.013020833333333334,45.078125,0)" xlink:href="#F"/><use transform="matrix(0.013020833333333334,0,0,0.013020833333333334,60.625,0)" xlink:href="#H"/><use transform="matrix(0.013020833333333334,0,0,0.013020833333333334,83.984375,0)" xlink:href="#q"/><use transform="matrix(0.013020833333333334,0,0,0.013020833333333334,98.95833333333333,0)" xlink:href="#L"/><use transform="matrix(0.013020833333333334,0,0,0.013020833333333334,106.640625,0)" xlink:href="#w"/><use transform="matrix(0.013020833333333334,0,0,0.013020833333333334,117.09635416666667,0)" xlink:href="#P"/></g><path d="M577 24c-279 0-473-224-473-580 0-354 195-576 474-576 218 0 287 134 324 193h14v-551h180V0H922v-173h-20C865-111 790 24 577 24zm27-161c203 0 314-172 314-421 0-247-108-413-314-413-212 0-317 181-317 413 0 235 108 421 317 421" id="Q"/><path d="M678-1118v154H420V0H240v-964H20v-154h220v-149c0-194 155-293 318-293 85 0 141 18 168 30l-50 154c-19-6-47-17-97-17-111 0-159 58-159 166v109h258" id="R"/><g id="i"><use transform="matrix(0.013020833333333334,0,0,0.013020833333333334,0,0)" xlink:href="#Q"/><use transform="matrix(0.013020833333333334,0,0,0.013020833333333334,16.328125,0)" xlink:href="#q"/><use transform="matrix(0.013020833333333334,0,0,0.013020833333333334,31.302083333333336,0)" xlink:href="#s"/><use transform="matrix(0.013020833333333334,0,0,0.013020833333333334,40.15625,0)" xlink:href="#q"/><use transform="matrix(0.013020833333333334,0,0,0.013020833333333334,55.130208333333336,0)" xlink:href="#r"/><use transform="matrix(0.013020833333333334,0,0,0.013020833333333334,69.20572916666667,0)" xlink:href="#s"/><use transform="matrix(0.013020833333333334,0,0,0.013020833333333334,77.66927083333333,0)" xlink:href="#A"/><use transform="matrix(0.013020833333333334,0,0,0.013020833333333334,93.65885416666666,0)" xlink:href="#w"/><use transform="matrix(0.013020833333333334,0,0,0.013020833333333334,103.25520833333333,0)" xlink:href="#F"/><use transform="matrix(0.013020833333333334,0,0,0.013020833333333334,118.80208333333334,0)" xlink:href="#K"/><use transform="matrix(0.013020833333333334,0,0,0.013020833333333334,130.96354166666666,0)" xlink:href="#u"/><use transform="matrix(0.013020833333333334,0,0,0.013020833333333334,146.19791666666666,0)" xlink:href="#A"/><use transform="matrix(0.013020833333333334,0,0,0.013020833333333334,162.1875,0)" xlink:href="#B"/><use transform="matrix(0.013020833333333334,0,0,0.013020833333333334,177.94270833333334,0)" xlink:href="#R"/><use transform="matrix(0.013020833333333334,0,0,0.013020833333333334,187.8125,0)" xlink:href="#t"/><use transform="matrix(0.013020833333333334,0,0,0.013020833333333334,194.27083333333334,0)" xlink:href="#N"/><use transform="matrix(0.013020833333333334,0,0,0.013020833333333334,210.625,0)" xlink:href="#L"/><use transform="matrix(0.013020833333333334,0,0,0.013020833333333334,218.30729166666669,0)" xlink:href="#M"/><use transform="matrix(0.013020833333333334,0,0,0.013020833333333334,233.16406249999997,0)" xlink:href="#q"/><use transform="matrix(0.013020833333333334,0,0,0.013020833333333334,248.1380208333333,0)" xlink:href="#H"/><use transform="matrix(0.013020833333333334,0,0,0.013020833333333334,271.4973958333333,0)" xlink:href="#p"/></g><path d="M537 14c-226 0-379-139-379-422v-710h180v695c0 172 97 275 253 275 160 0 281-109 281-300v-670h181V0H879v-209C806-46 684 14 537 14" id="S"/><g id="j"><use transform="matrix(0.013020833333333334,0,0,0.013020833333333334,0,0)" xlink:href="#z"/><use transform="matrix(0.013020833333333334,0,0,0.013020833333333334,18.3984375,0)" xlink:href="#S"/><use transform="matrix(0.013020833333333334,0,0,0.013020833333333334,34.16666666666667,0)" xlink:href="#s"/><use transform="matrix(0.013020833333333334,0,0,0.013020833333333334,42.89062500000001,0)" xlink:href="#y"/><use transform="matrix(0.013020833333333334,0,0,0.013020833333333334,58.65885416666667,0)" xlink:href="#A"/><use transform="matrix(0.013020833333333334,0,0,0.013020833333333334,74.6484375,0)" xlink:href="#w"/><use transform="matrix(0.013020833333333334,0,0,0.013020833333333334,84.6875,0)" xlink:href="#r"/></g><linearGradient gradientUnits="userSpaceOnUse" id="k" x1="219.87" y1="309.26" x2="344.16" y2="448.73"><stop offset="0%" stop-color="#0a35f9"/><stop offset="50%" stop-color="#415fff"/><stop offset="100%" stop-color="#a93ff6"/></linearGradient><g id="l"><use transform="matrix(0.015190972222222224,0,0,0.015190972222222224,0,0)" xlink:href="#z"/><use transform="matrix(0.015190972222222224,0,0,0.015190972222222224,21.464843750000004,0)" xlink:href="#x"/><use transform="matrix(0.015190972222222224,0,0,0.015190972222222224,40.51432291666667,0)" xlink:href="#x"/></g><path d="M784 20c-382 0-662-292-662-764 0-473 280-766 662-766s660 293 660 766c0 472-278 764-660 764zm0-176c266 0 475-207 475-588 0-383-209-590-475-590-268 0-477 208-477 590 0 380 209 588 477 588" id="T"/><path d="M409 0L70-1118h191c89 329 165 560 243 925 75-353 154-601 240-925h192c85 325 161 564 235 922 77-354 157-598 244-922h191L1267 0h-179c-86-307-176-590-250-913C763-588 675-308 588 0H409" id="U"/><g id="m"><use transform="matrix(0.015190972222222224,0,0,0.015190972222222224,0,0)" xlink:href="#T"/><use transform="matrix(0.015190972222222224,0,0,0.015190972222222224,23.789062500000004,0)" xlink:href="#U"/><use transform="matrix(0.015190972222222224,0,0,0.015190972222222224,49.24913194444445,0)" xlink:href="#B"/><use transform="matrix(0.015190972222222224,0,0,0.015190972222222224,67.63020833333334,0)" xlink:href="#F"/><use transform="matrix(0.015190972222222224,0,0,0.015190972222222224,85.76822916666669,0)" xlink:href="#w"/></g><g id="n"><use transform="matrix(0.013020833333333334,0,0,0.013020833333333334,0,0)" xlink:href="#w"/><use transform="matrix(0.013020833333333334,0,0,0.013020833333333334,10.0390625,0)" xlink:href="#S"/><use transform="matrix(0.013020833333333334,0,0,0.013020833333333334,25.807291666666668,0)" xlink:href="#B"/><use transform="matrix(0.013020833333333334,0,0,0.013020833333333334,41.5625,0)" xlink:href="#s"/><use transform="matrix(0.013020833333333334,0,0,0.013020833333333334,50.286458333333336,0)" xlink:href="#t"/><use transform="matrix(0.013020833333333334,0,0,0.013020833333333334,56.74479166666667,0)" xlink:href="#H"/><use transform="matrix(0.013020833333333334,0,0,0.013020833333333334,80.10416666666667,0)" xlink:href="#F"/><use transform="matrix(0.013020833333333334,0,0,0.013020833333333334,95.65104166666667,0)" xlink:href="#K"/><use transform="matrix(0.013020833333333334,0,0,0.013020833333333334,108.7109375,0)" xlink:href="#H"/><use transform="matrix(0.013020833333333334,0,0,0.013020833333333334,132.0703125,0)" xlink:href="#F"/><use transform="matrix(0.013020833333333334,0,0,0.013020833333333334,147.6171875,0)" xlink:href="#s"/><use transform="matrix(0.013020833333333334,0,0,0.013020833333333334,156.47135416666669,0)" xlink:href="#q"/><use transform="matrix(0.013020833333333334,0,0,0.013020833333333334,171.44531250000003,0)" xlink:href="#Q"/><use transform="matrix(0.013020833333333334,0,0,0.013020833333333334,187.77343750000003,0)" xlink:href="#q"/><use transform="matrix(0.013020833333333334,0,0,0.013020833333333334,202.74739583333337,0)" xlink:href="#s"/><use transform="matrix(0.013020833333333334,0,0,0.013020833333333334,211.60156250000006,0)" xlink:href="#q"/><use transform="matrix(0.013020833333333334,0,0,0.013020833333333334,226.5755208333334,0)" xlink:href="#L"/><use transform="matrix(0.013020833333333334,0,0,0.013020833333333334,234.25781250000006,0)" xlink:href="#M"/><use transform="matrix(0.013020833333333334,0,0,0.013020833333333334,249.1145833333334,0)" xlink:href="#q"/><use transform="matrix(0.013020833333333334,0,0,0.013020833333333334,264.0885416666667,0)" xlink:href="#H"/><use transform="matrix(0.013020833333333334,0,0,0.013020833333333334,287.4479166666667,0)" xlink:href="#p"/></g></defs></g></svg>