<svg xmlns="http://www.w3.org/2000/svg" xmlns:xlink="http://www.w3.org/1999/xlink" xmlns:lucid="lucid" width="1520" height="691"><g transform="translate(479 -2693)" lucid:page-tab-id="0_0"><path d="M-1000 0h2500v4500h-2500z" fill="#fff"/><path d="M107.45 2759.5a6 6 0 0 1 6-6H974a6 6 0 0 1 6 6V3314a6 6 0 0 1-6 6H113.45a6 6 0 0 1-6-6z" stroke="#003d87" stroke-width="4" fill="#edf5ff"/><use xlink:href="#a" transform="matrix(1,0,0,1,112.44791666666652,2758.5115224982587) translate(195.67317708333331 25.833333333333336)"/><use xlink:href="#b" transform="matrix(1,0,0,1,112.44791666666652,2758.5115224982587) translate(362.13151041666663 25.833333333333336)"/><use xlink:href="#c" transform="matrix(1,0,0,1,112.44791666666652,2758.5115224982587) translate(510.9986979166667 25.833333333333336)"/><path d="M940 3128.98c0 11.04-40.3 20-90 20s-90-8.96-90-20v-160c0-11.05 40.3-20 90-20s90 8.95 90 20z" stroke="#003d87" stroke-width="4" fill="#6db1ff"/><path d="M940 2968.98c0 11.04-40.3 20-90 20s-90-8.96-90-20" stroke="#003d87" stroke-width="4" fill="none"/><use xlink:href="#d" transform="matrix(1,0,0,1,765,2993.975930713053) translate(51.56358506944444 82.46527777777777)"/><path d="M515.67 3052.62h42.62" stroke="#cc4e00" stroke-width="4" fill="none"/><path d="M515.72 3054.6h-2.42l.42-2.25-.13-1.7h2.12z" stroke="#cc4e00" stroke-width=".05" fill="#cc4e00"/><path d="M574.56 3052.62l-14.27 4.63v-9.27z" stroke="#cc4e00" stroke-width="4" fill="#cc4e00"/><path d="M-117 3052.9h41.7" stroke="#cc4e00" stroke-width="4" fill="none"/><path d="M-116.95 3054.86H-119v-3.95h2.05z" stroke="#cc4e00" stroke-width=".05" fill="#cc4e00"/><path d="M-59.02 3052.9l-14.27 4.63v-9.28z" stroke="#cc4e00" stroke-width="4" fill="#cc4e00"/><path d="M-52.55 3037.75a6 6 0 0 1 6-6H72.97a6 6 0 0 1 6 6v30.28a6 6 0 0 1-6 6H-46.55a6 6 0 0 1-6-6z" fill="none"/><use xlink:href="#e" transform="matrix(1,0,0,1,-47.55208333333346,3036.7519153961553) translate(0 26.200520833333336)"/><path d="M343.52 3052.9h34.17a.14.14 0 0 0 .13-.15.14.14 0 0 1 .13-.13h13.44" stroke="#cc4e00" stroke-width="4" fill="none"/><path d="M343.57 3054.86h-2.05v-3.95h2.05z" stroke="#cc4e00" stroke-width=".05" fill="#cc4e00"/><path d="M407.67 3052.62l-14.27 4.63v-9.27z" stroke="#cc4e00" stroke-width="4" fill="#cc4e00"/><path d="M80.97 3052.9h55.3" stroke="#cc4e00" stroke-width="4" fill="none"/><path d="M81.02 3054.86h-2.05v-3.95h2.05z" stroke="#cc4e00" stroke-width=".05" fill="#cc4e00"/><path d="M152.53 3052.9l-14.27 4.63v-9.28z" stroke="#cc4e00" stroke-width="4" fill="#cc4e00"/><path d="M581.03 3033.84a6 6 0 0 1 6-6h97.73a6 6 0 0 1 6 6v30.27a6 6 0 0 1-6 6h-97.73a6 6 0 0 1-6-6z" fill="none"/><use xlink:href="#f" transform="matrix(1,0,0,1,586.0317166670834,3032.838118213053) translate(0 26.200520833333336)"/><path d="M692.76 3048.98h42.5" stroke="#e81313" stroke-width="4" fill="none"/><path d="M692.8 3050.95h-2.04V3047h2.05z" stroke="#e81313" stroke-width=".05" fill="#e81313"/><path d="M751.53 3048.98l-14.27 4.63v-9.26z" stroke="#e81313" stroke-width="4" fill="#e81313"/><path d="M-420 2886a6 6 0 0 1 6-6h288a6 6 0 0 1 6 6v320.9a6 6 0 0 1-6 6h-288a6 6 0 0 1-6-6z" stroke="#fe7070" stroke-width="2" fill="#ffd9d9"/><use xlink:href="#g" transform="matrix(1,0,0,1,-408,2892) translate(31.2378472222222 30.138888888888893)"/><use xlink:href="#h" transform="matrix(1,0,0,1,-408,2892) translate(107.70920138888887 30.138888888888893)"/><path d="M-406.06 3075.4a6 6 0 0 1 6-6h260.12a6 6 0 0 1 6 6v114c-45.44-20.05-73.75-20.05-90.9-20.05-27.2 0-63.4 20.04-90.6 20.04-16.88 0-45.45 0-90.62-20.05z" stroke="#54c45e" stroke-width="4" fill="#c3f7c8"/><use xlink:href="#i" transform="matrix(1,0,0,1,-401.0596875,3074.3858971038444) translate(9.097656249999986 53.958333333333336)"/><path d="M-198.97 3023.75c0 4.42-31.34 8-70 8s-70-3.58-70-8v-64c0-4.42 31.34-8 70-8s70 3.58 70 8z" stroke="#fcce14" stroke-width="2" fill="#fff3d9"/><path d="M-198.97 2959.75c0 4.42-31.34 8-70 8s-70-3.58-70-8" stroke="#fcce14" stroke-width="2" fill="none"/><use xlink:href="#j" transform="matrix(1,0,0,1,-333.96833333333325,2972.7519153961553) translate(15.320095486111114 35.02777777777778)"/><path d="M160 3018.32a6 6 0 0 1 6-6h168.52a6 6 0 0 1 6 6v69.14a6 6 0 0 1-6 6H166a6 6 0 0 1-6-6z" stroke="#003d87" stroke-width="2" fill="#6db1ff"/><path d="M178.05 3012.32v81.14m144.4-81.14v81.14" stroke="#003d87" stroke-width="2" fill="none"/><use xlink:href="#k" transform="matrix(1,0,0,1,187.56447916666667,3017.3208216461553) translate(30.312282986111114 27.95095486111111)"/><use xlink:href="#l" transform="matrix(1,0,0,1,187.56447916666667,3017.3208216461553) translate(2.75694444444445 60.21657986111111)"/><path d="M440.84 3003.05c12.8-11.56 27.84-16.85 45-15.6l14.54.56 6.7.3c1 0 1.75-.3 2.74-1 2.5-2.07 5.34-3.33 8.33-4.02 6.96-1.26 14.17 2.22 18.02 8.5 4.6 8.07 1.87 18.37-6.2 23.1-8.1 4.74-18.4 1.95-23.13-6.12l-1.24-1.95c-1-1.8-2.74-2.78-4.73-2.78-6.7 0-13.3-.28-20 .28-10.45.14-19.77 3.9-27.73 11-7.08 6.27-11.8 13.93-15.04 22.42-1 2.78.5 5.3 3.73 5.57h36.05c2.24 0 4.22-1 5.96-2.8 4.48-5.3 10.57-7.24 17.28-5.57 6.7 2.1 10.7 6.55 12.3 13.5 1.75 8.37-3.85 17.55-13.3 19.36-6.7 1.4-12.3-.84-16.77-6-1.5-1.8-3.48-2.5-5.72-2.78h-34.3c-3 0-6.97 2.93-5.72 7.52 2 7.52 5.72 13.65 11.07 19.22 8.33 9.05 18.64 13.78 30.95 14.2l21.75-.14c2.24-.28 3.98-1.12 5.22-3.06 2.23-3.07 4.7-5.57 8.32-6.97 9.94-4.32 21.25 2.22 23 12.66 1.73 9.33-4.6 18.1-14.05 19.5-4.73.83-9.45-.14-13.06-3.48-2.22-1.95-4.7-1.95-7.2-1.67h-1l-23.73.14c-10.3 0-19.76-2.5-28.7-7.65-16.3-9.9-26.36-24.52-29.6-43.32-.5-1.67-1.24-3.48-2.48-4.73-2.62-2.5-4-5.57-4-9.2 0-3.6 1-6.8 3.5-9.32 1.73-1.67 2.73-3.76 3.23-6.26 2.48-10.72 7.58-20.47 15.04-28.7l4.97-4.72z" stroke="#000" stroke-opacity="0" stroke-width=".25" fill="url(#m)"/><path d="M440.84 3003.05c12.8-11.56 27.84-16.85 45-15.6l14.54.56 6.7.3c1 0 1.75-.3 2.74-1 2.5-2.07 5.34-3.33 8.33-4.02 6.96-1.26 14.17 2.22 18.02 8.5 4.6 8.07 1.87 18.37-6.2 23.1-8.1 4.74-18.4 1.95-23.13-6.12l-1.24-1.95c-1-1.8-2.74-2.78-4.73-2.78-6.7 0-13.3-.28-20 .28-10.45.14-19.77 3.9-27.73 11-7.08 6.27-11.8 13.93-15.04 22.42-1 2.78.5 5.3 3.73 5.57h36.05c2.24 0 4.22-1 5.96-2.8 4.48-5.3 10.57-7.24 17.28-5.57 6.7 2.1 10.7 6.55 12.3 13.5 1.75 8.37-3.85 17.55-13.3 19.36-6.7 1.4-12.3-.84-16.77-6-1.5-1.8-3.48-2.5-5.72-2.78h-34.3c-3 0-6.97 2.93-5.72 7.52 2 7.52 5.72 13.65 11.07 19.22 8.33 9.05 18.64 13.78 30.95 14.2l21.75-.14c2.24-.28 3.98-1.12 5.22-3.06 2.23-3.07 4.7-5.57 8.32-6.97 9.94-4.32 21.25 2.22 23 12.66 1.73 9.33-4.6 18.1-14.05 19.5-4.73.83-9.45-.14-13.06-3.48-2.22-1.95-4.7-1.95-7.2-1.67h-1l-23.73.14c-10.3 0-19.76-2.5-28.7-7.65-16.3-9.9-26.36-24.52-29.6-43.32-.5-1.67-1.24-3.48-2.48-4.73-2.62-2.5-4-5.57-4-9.2 0-3.6 1-6.8 3.5-9.32 1.73-1.67 2.73-3.76 3.23-6.26 2.48-10.72 7.58-20.47 15.04-28.7l4.97-4.72z" stroke="#000" stroke-opacity="0" stroke-width=".63" fill-opacity="0"/><path d="M476.26 2933.8V2964.74" stroke="#cc4e00" stroke-width="4" fill="none"/><path d="M478.24 2933.85h-3.95v-1.6l3.94-.9z" stroke="#cc4e00" stroke-width=".05" fill="#cc4e00"/><path d="M476.26 2981l-4.63-14.27h9.27z" stroke="#cc4e00" stroke-width="4" fill="#cc4e00"/><path d="M304.06 3171.24a6 6 0 0 1 6-6h332.4a6 6 0 0 1 6 6v114c-57.5-20.04-93.33-20.04-115.03-20.04-34.44 0-80.24 20.04-114.68 20.04-21.36 0-57.52 0-114.7-20.04z" stroke="#ba23f6" stroke-width="4" fill="#fbf0ff"/><use xlink:href="#n" transform="matrix(1,0,0,1,309.0567917633092,3170.2351458444655) translate(20.546875 53.958333333333336)"/><path d="M304.06 2826a6 6 0 0 1 6-6h332.4a6 6 0 0 1 6 6v114c-57.5-20.04-93.33-20.04-115.03-20.04-34.44 0-80.24 20.04-114.68 20.04-21.36 0-57.52 0-114.7-20.04z" stroke="#54c45e" stroke-width="4" fill="#c3f7c8"/><use xlink:href="#i" transform="matrix(1,0,0,1,309.0567917633092,2825) translate(45.097656249999986 53.958333333333336)"/><path d="M477.28 3161.24V3139.55" stroke="#cc4e00" stroke-width="4" fill="none"/><path d="M479.26 3163.24h-3.95v-2.06h3.96z" stroke="#cc4e00" stroke-width=".05" fill="#cc4e00"/><path d="M477.28 3123.28l4.64 14.27h-9.27z" stroke="#cc4e00" stroke-width="4" fill="#cc4e00"/><defs><path d="M180 0v-1490h908v168H370v486h669v168H370v500h727V0H180" id="o"/><path d="M338-1490V0H158v-1490h180" id="p"/><path d="M471 26C259 26 90-98 90-318c0-256 228-303 435-329 202-27 287-16 287-108 0-139-79-219-234-219-161 0-248 86-283 164l-173-57c86-203 278-265 451-265 150 0 419 46 419 395V0H815v-152h-12C765-73 660 26 471 26zm31-159c199 0 310-134 310-271v-155c-30 35-226 55-295 64-131 17-246 59-246 186 0 116 97 176 231 176" id="q"/><path d="M538 24C308 24 148-78 108-271l171-41c32 123 123 178 257 178 156 0 256-77 256-169 0-77-54-128-164-154l-186-44c-203-48-300-148-300-305 0-192 176-326 414-326 230 0 351 112 402 269l-163 42c-31-80-94-158-238-158-133 0-233 69-233 162 0 83 57 129 188 160l169 40c203 48 298 149 298 302 0 196-179 339-441 339" id="r"/><path d="M598-1118v154H368v674c0 100 37 144 132 144 23 0 62-6 92-12L629-6c-37 13-88 20-134 20-193 0-307-107-307-290v-688H20v-154h168v-266h180v266h230" id="s"/><path d="M158 0v-1118h180V0H158zm91-1301c-68 0-125-53-125-119s57-119 125-119c69 0 126 53 126 119s-57 119-126 119" id="t"/><path d="M613 24c-304 0-509-231-509-576 0-350 205-580 509-580 216 0 392 114 453 309l-173 49c-33-115-133-197-280-197-223 0-326 196-326 419 0 220 103 415 326 415 150 0 252-85 285-206l172 49C1010-95 832 24 613 24" id="u"/><path d="M789 20c-398 0-667-293-667-764 0-473 273-766 655-766 315 0 558 198 612 487h-196c-61-191-204-311-415-311-262 0-471 207-471 590 0 380 208 588 482 588 249 0 420-165 425-427H828v-166h572v163c0 370-256 606-611 606" id="v"/><path d="M158 0v-1118h174v172h12c41-113 157-188 290-188 26 0 70 2 91 3v181c-11-2-60-10-108-10-161 0-279 109-279 260V0H158" id="w"/><path d="M158 418v-1536h174v179h20c37-59 106-193 324-193 279 0 474 222 474 576 0 356-194 580-473 580-213 0-288-135-325-197h-14v591H158zm492-555c209 0 317-186 317-421 0-232-105-413-317-413-206 0-314 166-314 413 0 249 111 421 314 421" id="x"/><path d="M338-670V0H158v-1490h180v566c73-149 190-208 336-208 226 0 379 139 379 422V0H872v-695c0-172-96-275-252-275-161 0-282 109-282 300" id="y"/><g id="a"><use transform="matrix(0.013020833333333334,0,0,0.013020833333333334,0,0)" xlink:href="#o"/><use transform="matrix(0.013020833333333334,0,0,0.013020833333333334,16.028645833333336,0)" xlink:href="#p"/><use transform="matrix(0.013020833333333334,0,0,0.013020833333333334,22.48697916666667,0)" xlink:href="#q"/><use transform="matrix(0.013020833333333334,0,0,0.013020833333333334,37.46093750000001,0)" xlink:href="#r"/><use transform="matrix(0.013020833333333334,0,0,0.013020833333333334,51.53645833333334,0)" xlink:href="#s"/><use transform="matrix(0.013020833333333334,0,0,0.013020833333333334,60.26041666666668,0)" xlink:href="#t"/><use transform="matrix(0.013020833333333334,0,0,0.013020833333333334,66.71875000000001,0)" xlink:href="#u"/><use transform="matrix(0.013020833333333334,0,0,0.013020833333333334,81.95312500000001,0)" xlink:href="#v"/><use transform="matrix(0.013020833333333334,0,0,0.013020833333333334,101.84895833333334,0)" xlink:href="#w"/><use transform="matrix(0.013020833333333334,0,0,0.013020833333333334,111.88802083333334,0)" xlink:href="#q"/><use transform="matrix(0.013020833333333334,0,0,0.013020833333333334,126.86197916666667,0)" xlink:href="#x"/><use transform="matrix(0.013020833333333334,0,0,0.013020833333333334,143.19010416666669,0)" xlink:href="#y"/></g><path d="M52 0l541-1490h220L1361 0h-200l-149-416H398L254 0H52zm404-582h497c-103-290-145-390-251-756-108 377-145 460-246 756" id="z"/><path d="M613 24c-304 0-509-231-509-576 0-350 205-580 509-580 305 0 511 230 511 580 0 345-206 576-511 576zm0-161c226 0 329-195 329-415 0-222-103-419-329-419-223 0-326 196-326 419 0 220 103 415 326 415" id="A"/><path d="M338-670V0H158v-1118h173l1 207c72-158 192-221 342-221 226 0 378 139 378 422V0H872v-695c0-172-96-275-252-275-161 0-282 109-282 300" id="B"/><g id="b"><use transform="matrix(0.013020833333333334,0,0,0.013020833333333334,0,0)" xlink:href="#z"/><use transform="matrix(0.013020833333333334,0,0,0.013020833333333334,18.3984375,0)" xlink:href="#x"/><use transform="matrix(0.013020833333333334,0,0,0.013020833333333334,34.7265625,0)" xlink:href="#x"/><use transform="matrix(0.013020833333333334,0,0,0.013020833333333334,51.0546875,0)" xlink:href="#p"/><use transform="matrix(0.013020833333333334,0,0,0.013020833333333334,57.513020833333336,0)" xlink:href="#t"/><use transform="matrix(0.013020833333333334,0,0,0.013020833333333334,63.97135416666667,0)" xlink:href="#u"/><use transform="matrix(0.013020833333333334,0,0,0.013020833333333334,79.46614583333334,0)" xlink:href="#q"/><use transform="matrix(0.013020833333333334,0,0,0.013020833333333334,94.44010416666667,0)" xlink:href="#s"/><use transform="matrix(0.013020833333333334,0,0,0.013020833333333334,103.1640625,0)" xlink:href="#t"/><use transform="matrix(0.013020833333333334,0,0,0.013020833333333334,109.62239583333334,0)" xlink:href="#A"/><use transform="matrix(0.013020833333333334,0,0,0.013020833333333334,125.61197916666664,0)" xlink:href="#B"/></g><path d="M218-607c0-325 108-727 258-974h175c-155 315-250 682-250 974 0 265 78 531 250 886H476C306-10 218-315 218-607" id="C"/><path d="M180 0v-1490h510c348 0 508 209 508 474 0 266-160 477-507 477H370V0H180zm190-706h312c236 0 327-133 327-310 0-176-91-307-329-307H370v617" id="D"/><path d="M577 24c-279 0-473-224-473-580 0-354 195-576 474-576 218 0 287 134 324 193h14v-551h180V0H922v-173h-20C865-111 790 24 577 24zm27-161c203 0 314-172 314-421 0-247-108-413-314-413-212 0-317 181-317 413 0 235 108 421 317 421" id="E"/><path d="M537 14c-226 0-379-139-379-422v-710h180v695c0 172 97 275 253 275 160 0 281-109 281-300v-670h181V0H879v-209C806-46 684 14 537 14" id="F"/><path d="M96 279C273-86 346-350 346-607c0-292-95-659-250-974h175c150 246 258 650 258 974 0 297-91 602-258 886H96" id="G"/><g id="c"><use transform="matrix(0.013020833333333334,0,0,0.013020833333333334,0,0)" xlink:href="#C"/><use transform="matrix(0.013020833333333334,0,0,0.013020833333333334,9.7265625,0)" xlink:href="#D"/><use transform="matrix(0.013020833333333334,0,0,0.013020833333333334,26.7578125,0)" xlink:href="#w"/><use transform="matrix(0.013020833333333334,0,0,0.013020833333333334,36.35416666666667,0)" xlink:href="#A"/><use transform="matrix(0.013020833333333334,0,0,0.013020833333333334,52.34375000000001,0)" xlink:href="#E"/><use transform="matrix(0.013020833333333334,0,0,0.013020833333333334,68.671875,0)" xlink:href="#F"/><use transform="matrix(0.013020833333333334,0,0,0.013020833333333334,84.44010416666667,0)" xlink:href="#u"/><use transform="matrix(0.013020833333333334,0,0,0.013020833333333334,99.67447916666667,0)" xlink:href="#s"/><use transform="matrix(0.013020833333333334,0,0,0.013020833333333334,108.3984375,0)" xlink:href="#t"/><use transform="matrix(0.013020833333333334,0,0,0.013020833333333334,114.85677083333334,0)" xlink:href="#A"/><use transform="matrix(0.013020833333333334,0,0,0.013020833333333334,130.84635416666666,0)" xlink:href="#B"/><use transform="matrix(0.013020833333333334,0,0,0.013020833333333334,146.6015625,0)" xlink:href="#G"/></g><path d="M657 26c-323 0-524-166-541-416h195c15 169 171 246 346 246 202 0 356-106 356-265 5-203-294-238-475-293-239-73-380-191-380-389 0-252 224-419 512-419 294 0 499 171 508 396H992c-17-145-151-228-328-228-193 0-321 102-321 242 0 156 175 211 284 241l149 41c160 44 422 134 422 412 0 244-197 432-541 432" id="H"/><path d="M692-1560L212 224H46l480-1784h166" id="I"/><path d="M784 20c-382 0-662-292-662-764 0-473 280-766 662-766s660 293 660 766c0 472-278 764-660 764zm0-176c266 0 475-207 475-588 0-383-209-590-475-590-268 0-477 208-477 590 0 380 209 588 477 588" id="J"/><g id="d"><use transform="matrix(0.010850694444444444,0,0,0.010850694444444444,0,0)" xlink:href="#o"/><use transform="matrix(0.010850694444444444,0,0,0.010850694444444444,13.35720486111111,0)" xlink:href="#H"/><use transform="matrix(0.010850694444444444,0,0,0.010850694444444444,27.61501736111111,0)" xlink:href="#I"/><use transform="matrix(0.010850694444444444,0,0,0.010850694444444444,35.622829861111114,0)" xlink:href="#J"/><use transform="matrix(0.010850694444444444,0,0,0.010850694444444444,52.61501736111112,0)" xlink:href="#H"/></g><path d="M677 24c-213 0-288-135-325-197h-20V0H158v-1490h180v551h14c37-59 106-193 324-193 279 0 474 222 474 576 0 356-194 580-473 580zm-27-161c209 0 317-186 317-421 0-232-105-413-317-413-206 0-314 166-314 413 0 249 111 421 314 421" id="K"/><path d="M628 24c-324 0-524-230-524-574 0-343 198-582 503-582 237 0 487 146 487 559v75H286c9 234 145 362 343 362 132 0 231-58 273-172l174 48C1024-91 857 24 628 24zM287-650h624c-17-190-120-322-304-322-192 0-309 151-320 322" id="L"/><g id="e"><use transform="matrix(0.013020833333333334,0,0,0.013020833333333334,0,0)" xlink:href="#D"/><use transform="matrix(0.013020833333333334,0,0,0.013020833333333334,17.03125,0)" xlink:href="#F"/><use transform="matrix(0.013020833333333334,0,0,0.013020833333333334,32.79947916666667,0)" xlink:href="#K"/><use transform="matrix(0.013020833333333334,0,0,0.013020833333333334,49.12760416666667,0)" xlink:href="#p"/><use transform="matrix(0.013020833333333334,0,0,0.013020833333333334,55.5859375,0)" xlink:href="#t"/><use transform="matrix(0.013020833333333334,0,0,0.013020833333333334,62.04427083333335,0)" xlink:href="#r"/><use transform="matrix(0.013020833333333334,0,0,0.013020833333333334,76.11979166666667,0)" xlink:href="#y"/><use transform="matrix(0.013020833333333334,0,0,0.013020833333333334,91.88802083333334,0)" xlink:href="#L"/><use transform="matrix(0.013020833333333334,0,0,0.013020833333333334,107.43489583333334,0)" xlink:href="#r"/></g><path d="M370-1490V0H180v-1490h190" id="M"/><path d="M65 0l393-574-370-544h210c88 136 192 297 267 435 67-142 176-302 264-435h206L661-564 1053 0H844c-94-144-206-310-287-458C484-308 366-142 273 0H65" id="N"/><g id="f"><use transform="matrix(0.013020833333333334,0,0,0.013020833333333334,0,0)" xlink:href="#M"/><use transform="matrix(0.013020833333333334,0,0,0.013020833333333334,7.161458333333334,0)" xlink:href="#B"/><use transform="matrix(0.013020833333333334,0,0,0.013020833333333334,22.916666666666668,0)" xlink:href="#E"/><use transform="matrix(0.013020833333333334,0,0,0.013020833333333334,39.24479166666667,0)" xlink:href="#L"/><use transform="matrix(0.013020833333333334,0,0,0.013020833333333334,54.192708333333336,0)" xlink:href="#N"/><use transform="matrix(0.013020833333333334,0,0,0.013020833333333334,68.15104166666667,0)" xlink:href="#L"/><use transform="matrix(0.013020833333333334,0,0,0.013020833333333334,83.69791666666667,0)" xlink:href="#r"/></g><path d="M645 0H180v-1490h484c435 0 692 280 692 742 0 466-257 748-711 748zM370-168h263c363 0 539-218 539-580 0-358-176-574-521-574H370v1154" id="O"/><g id="g"><use transform="matrix(0.015190972222222224,0,0,0.015190972222222224,0,0)" xlink:href="#O"/><use transform="matrix(0.015190972222222224,0,0,0.015190972222222224,22.452256944444446,0)" xlink:href="#q"/><use transform="matrix(0.015190972222222224,0,0,0.015190972222222224,39.921875,0)" xlink:href="#s"/><use transform="matrix(0.015190972222222224,0,0,0.015190972222222224,50.251736111111114,0)" xlink:href="#q"/></g><g id="h"><use transform="matrix(0.015190972222222224,0,0,0.015190972222222224,0,0)" xlink:href="#D"/><use transform="matrix(0.015190972222222224,0,0,0.015190972222222224,19.869791666666668,0)" xlink:href="#F"/><use transform="matrix(0.015190972222222224,0,0,0.015190972222222224,38.266059027777786,0)" xlink:href="#K"/><use transform="matrix(0.015190972222222224,0,0,0.015190972222222224,57.31553819444446,0)" xlink:href="#p"/><use transform="matrix(0.015190972222222224,0,0,0.015190972222222224,64.85026041666669,0)" xlink:href="#t"/><use transform="matrix(0.015190972222222224,0,0,0.015190972222222224,72.38498263888891,0)" xlink:href="#r"/><use transform="matrix(0.015190972222222224,0,0,0.015190972222222224,88.80642361111114,0)" xlink:href="#y"/><use transform="matrix(0.015190972222222224,0,0,0.015190972222222224,107.20269097222226,0)" xlink:href="#L"/><use transform="matrix(0.015190972222222224,0,0,0.015190972222222224,125.3407118055556,0)" xlink:href="#w"/></g><path d="M157-1118h181V80c1 225-123 350-364 338V252c126 9 184-48 183-172v-1198zm91-183c-68 0-125-53-125-119s57-119 125-119c69 0 126 53 126 119s-57 119-126 119" id="P"/><path d="M934 0v166H0V0h934" id="Q"/><path d="M158 0v-1118h175l1 205c55-151 181-225 313-225 147 0 245 90 285 228 53-141 190-228 352-228 194 0 352 125 352 384V0h-181v-749c0-161-105-225-225-225-151 0-243 103-243 244V0H807v-767c0-124-93-207-219-207-131 0-250 92-250 270V0H158" id="R"/><path d="M295 13c-75 0-135-60-135-135s60-135 135-135 135 60 135 135S370 13 295 13" id="S"/><path d="M140 405l46-156c120 36 205 19 263-150l32-93L54-1118h197c107 313 237 620 324 950 87-331 219-637 326-950h196L606 167c-68 178-176 259-334 259-64 0-113-12-132-21" id="T"/><g id="i"><use transform="matrix(0.013020833333333334,0,0,0.013020833333333334,0,0)" xlink:href="#P"/><use transform="matrix(0.013020833333333334,0,0,0.013020833333333334,6.458333333333334,0)" xlink:href="#r"/><use transform="matrix(0.013020833333333334,0,0,0.013020833333333334,20.533854166666668,0)" xlink:href="#A"/><use transform="matrix(0.013020833333333334,0,0,0.013020833333333334,36.5234375,0)" xlink:href="#B"/><use transform="matrix(0.013020833333333334,0,0,0.013020833333333334,52.278645833333336,0)" xlink:href="#Q"/><use transform="matrix(0.013020833333333334,0,0,0.013020833333333334,64.44010416666667,0)" xlink:href="#r"/><use transform="matrix(0.013020833333333334,0,0,0.013020833333333334,78.515625,0)" xlink:href="#u"/><use transform="matrix(0.013020833333333334,0,0,0.013020833333333334,93.75,0)" xlink:href="#y"/><use transform="matrix(0.013020833333333334,0,0,0.013020833333333334,109.51822916666667,0)" xlink:href="#L"/><use transform="matrix(0.013020833333333334,0,0,0.013020833333333334,125.06510416666667,0)" xlink:href="#R"/><use transform="matrix(0.013020833333333334,0,0,0.013020833333333334,148.42447916666669,0)" xlink:href="#q"/><use transform="matrix(0.013020833333333334,0,0,0.013020833333333334,163.39843750000003,0)" xlink:href="#r"/><use transform="matrix(0.013020833333333334,0,0,0.013020833333333334,177.47395833333337,0)" xlink:href="#S"/><use transform="matrix(0.013020833333333334,0,0,0.013020833333333334,185.15625000000003,0)" xlink:href="#T"/><use transform="matrix(0.013020833333333334,0,0,0.013020833333333334,200.01302083333334,0)" xlink:href="#q"/><use transform="matrix(0.013020833333333334,0,0,0.013020833333333334,214.98697916666669,0)" xlink:href="#R"/><use transform="matrix(0.013020833333333334,0,0,0.013020833333333334,238.34635416666669,0)" xlink:href="#p"/></g><g id="j"><use transform="matrix(0.010850694444444444,0,0,0.010850694444444444,0,0)" xlink:href="#O"/><use transform="matrix(0.010850694444444444,0,0,0.010850694444444444,16.03732638888889,0)" xlink:href="#q"/><use transform="matrix(0.010850694444444444,0,0,0.010850694444444444,28.515625,0)" xlink:href="#s"/><use transform="matrix(0.010850694444444444,0,0,0.010850694444444444,35.89409722222222,0)" xlink:href="#q"/><use transform="matrix(0.010850694444444444,0,0,0.010850694444444444,48.37239583333333,0)" xlink:href="#K"/><use transform="matrix(0.010850694444444444,0,0,0.010850694444444444,62.19618055555554,0)" xlink:href="#q"/><use transform="matrix(0.010850694444444444,0,0,0.010850694444444444,74.67447916666666,0)" xlink:href="#r"/><use transform="matrix(0.010850694444444444,0,0,0.010850694444444444,86.4040798611111,0)" xlink:href="#L"/></g><g id="k"><use transform="matrix(0.010850694444444444,0,0,0.010850694444444444,0,0)" xlink:href="#z"/><use transform="matrix(0.010850694444444444,0,0,0.010850694444444444,15.33203125,0)" xlink:href="#r"/><use transform="matrix(0.010850694444444444,0,0,0.010850694444444444,27.061631944444443,0)" xlink:href="#T"/><use transform="matrix(0.010850694444444444,0,0,0.010850694444444444,39.55078125,0)" xlink:href="#B"/><use transform="matrix(0.010850694444444444,0,0,0.010850694444444444,52.68012152777778,0)" xlink:href="#u"/></g><g id="l"><use transform="matrix(0.010850694444444444,0,0,0.010850694444444444,0,0)" xlink:href="#O"/><use transform="matrix(0.010850694444444444,0,0,0.010850694444444444,16.03732638888889,0)" xlink:href="#q"/><use transform="matrix(0.010850694444444444,0,0,0.010850694444444444,28.515625,0)" xlink:href="#s"/><use transform="matrix(0.010850694444444444,0,0,0.010850694444444444,35.89409722222222,0)" xlink:href="#q"/><use transform="matrix(0.010850694444444444,0,0,0.010850694444444444,48.37239583333333,0)" xlink:href="#r"/><use transform="matrix(0.010850694444444444,0,0,0.010850694444444444,60.10199652777778,0)" xlink:href="#s"/><use transform="matrix(0.010850694444444444,0,0,0.010850694444444444,67.37196180555554,0)" xlink:href="#w"/><use transform="matrix(0.010850694444444444,0,0,0.010850694444444444,75.3689236111111,0)" xlink:href="#L"/><use transform="matrix(0.010850694444444444,0,0,0.010850694444444444,88.54166666666666,0)" xlink:href="#q"/><use transform="matrix(0.010850694444444444,0,0,0.010850694444444444,101.01996527777777,0)" xlink:href="#R"/></g><linearGradient gradientUnits="userSpaceOnUse" id="m" x1="413.99" y1="2982.9" x2="538.27" y2="3122.37"><stop offset="0%" stop-color="#0a35f9"/><stop offset="50%" stop-color="#415fff"/><stop offset="100%" stop-color="#a93ff6"/></linearGradient><g id="n"><use transform="matrix(0.013020833333333334,0,0,0.013020833333333334,0,0)" xlink:href="#w"/><use transform="matrix(0.013020833333333334,0,0,0.013020833333333334,10.0390625,0)" xlink:href="#F"/><use transform="matrix(0.013020833333333334,0,0,0.013020833333333334,25.807291666666668,0)" xlink:href="#B"/><use transform="matrix(0.013020833333333334,0,0,0.013020833333333334,41.5625,0)" xlink:href="#s"/><use transform="matrix(0.013020833333333334,0,0,0.013020833333333334,50.286458333333336,0)" xlink:href="#t"/><use transform="matrix(0.013020833333333334,0,0,0.013020833333333334,56.74479166666667,0)" xlink:href="#R"/><use transform="matrix(0.013020833333333334,0,0,0.013020833333333334,80.10416666666667,0)" xlink:href="#L"/><use transform="matrix(0.013020833333333334,0,0,0.013020833333333334,95.65104166666667,0)" xlink:href="#Q"/><use transform="matrix(0.013020833333333334,0,0,0.013020833333333334,108.7109375,0)" xlink:href="#R"/><use transform="matrix(0.013020833333333334,0,0,0.013020833333333334,132.0703125,0)" xlink:href="#L"/><use transform="matrix(0.013020833333333334,0,0,0.013020833333333334,147.6171875,0)" xlink:href="#s"/><use transform="matrix(0.013020833333333334,0,0,0.013020833333333334,156.47135416666669,0)" xlink:href="#q"/><use transform="matrix(0.013020833333333334,0,0,0.013020833333333334,171.44531250000003,0)" xlink:href="#E"/><use transform="matrix(0.013020833333333334,0,0,0.013020833333333334,187.77343750000003,0)" xlink:href="#q"/><use transform="matrix(0.013020833333333334,0,0,0.013020833333333334,202.74739583333337,0)" xlink:href="#s"/><use transform="matrix(0.013020833333333334,0,0,0.013020833333333334,211.60156250000006,0)" xlink:href="#q"/><use transform="matrix(0.013020833333333334,0,0,0.013020833333333334,226.5755208333334,0)" xlink:href="#S"/><use transform="matrix(0.013020833333333334,0,0,0.013020833333333334,234.25781250000006,0)" xlink:href="#T"/><use transform="matrix(0.013020833333333334,0,0,0.013020833333333334,249.1145833333334,0)" xlink:href="#q"/><use transform="matrix(0.013020833333333334,0,0,0.013020833333333334,264.0885416666667,0)" xlink:href="#R"/><use transform="matrix(0.013020833333333334,0,0,0.013020833333333334,287.4479166666667,0)" xlink:href="#p"/></g></defs></g></svg>