<svg xmlns="http://www.w3.org/2000/svg" xmlns:xlink="http://www.w3.org/1999/xlink" xmlns:lucid="lucid" width="1285" height="705"><g transform="translate(218 -1871)" lucid:page-tab-id="0_0"><path d="M-1000 0h2500v4500h-2500z" fill="#fff"/><path d="M239.47 1946a6 6 0 0 1 6-6H994a6 6 0 0 1 6 6v554.5a6 6 0 0 1-6 6H245.47a6 6 0 0 1-6-6z" stroke="#003d87" stroke-width="4" fill="#edf5ff"/><use xlink:href="#a" transform="matrix(1,0,0,1,244.46902821591823,1945.0000000000002) translate(139.67317708333331 25.833333333333336)"/><use xlink:href="#b" transform="matrix(1,0,0,1,244.46902821591823,1945.0000000000002) translate(306.13151041666663 25.833333333333336)"/><use xlink:href="#c" transform="matrix(1,0,0,1,244.46902821591823,1945.0000000000002) translate(454.9986979166667 25.833333333333336)"/><path d="M960 2311.34c0 11.05-40.3 20-90 20s-90-8.95-90-20v-160c0-11.05 40.3-20 90-20s90 8.95 90 20z" stroke="#003d87" stroke-width="4" fill="#6db1ff"/><path d="M960 2151.34c0 11.05-40.3 20-90 20s-90-8.95-90-20" stroke="#003d87" stroke-width="4" fill="none"/><use xlink:href="#d" transform="matrix(1,0,0,1,785,2176.3404675806123) translate(51.56358506944444 82.46527777777777)"/><path d="M496.74 2233.64H542.33" stroke="#635dff" stroke-width="4" fill="none"/><path d="M496.8 2235.62h-2.15l.17-.9-.23-3.05h2.2z" stroke="#635dff" stroke-width=".05" fill="#635dff"/><path d="M558.6 2233.64l-14.27 4.64V2229z" stroke="#635dff" stroke-width="4" fill="#635dff"/><path d="M-61.52 2197.45c0 13.04-10.5 23.52-23.44 23.52-12.94 0-23.43-10.48-23.43-23.52 0-12.92 10.5-23.4 23.44-23.4 12.94 0 23.43 10.48 23.43 23.4m-70.3 88.23c.47-25.84 21.75-46.43 47.62-46.07 25.4.38 45.73 20.73 46.1 46.08-15.46 7.07-29.9 10.24-46.86 10.24-16.68 0-32.62-3.66-46.87-10.24z" stroke="#635dff" stroke-width="4" fill="#9391ff"/><path d="M-36.1 2234.98h55.14" stroke="#635dff" stroke-width="4" fill="none"/><path d="M-36.04 2236.96h-5.05V2233h5.06z" stroke="#635dff" stroke-width=".05" fill="#635dff"/><path d="M35.3 2234.98l-14.26 4.64v-9.27z" stroke="#635dff" stroke-width="4" fill="#635dff"/><path d="M41.78 2219.84a6 6 0 0 1 6-6h146.97a6 6 0 0 1 6 6v30.28a6 6 0 0 1-6 6H47.78a6 6 0 0 1-6-6z" fill="none"/><use xlink:href="#e" transform="matrix(1,0,0,1,46.78083467422621,2218.844297289792) translate(0 26.200520833333336)"/><path d="M-169.73 2114.8a6 6 0 0 1 6-6H.07a6 6 0 0 1 6 6v35.66a6 6 0 0 1-6 6h-163.8a6 6 0 0 1-6-6z" fill="none"/><use xlink:href="#f" transform="matrix(1,0,0,1,-164.73001566565245,2113.8094008156377) translate(0 30.317274305555557)"/><use xlink:href="#g" transform="matrix(1,0,0,1,-164.73001566565245,2113.8094008156377) translate(68.31380208333334 30.317274305555557)"/><path d="M202.75 2234.98H372.5" stroke="#635dff" stroke-width="4" fill="none"/><path d="M202.8 2236.96h-2.05V2233h2.05z" stroke="#635dff" stroke-width=".05" fill="#635dff"/><path d="M388.77 2234.98l-14.27 4.64v-9.27z" stroke="#635dff" stroke-width="4" fill="#635dff"/><path d="M565.07 2214.86a6 6 0 0 1 6-6h136.9a6 6 0 0 1 6 6v30.28a6 6 0 0 1-6 6h-136.9a6 6 0 0 1-6-6z" fill="none"/><use xlink:href="#h" transform="matrix(1,0,0,1,570.0706176522417,2213.8621875) translate(0 26.200520833333336)"/><path d="M715.97 2230h39.28" stroke="#635dff" stroke-width="4" fill="none"/><path d="M716.02 2231.97h-2.05v-3.94h2.05z" stroke="#635dff" stroke-width=".05" fill="#635dff"/><path d="M771.53 2230l-14.27 4.64v-9.28z" stroke="#635dff" stroke-width="4" fill="#635dff"/><path d="M421.94 2185.4c12.8-11.54 27.84-16.83 45-15.58l14.53.56 6.72.27c.98 0 1.73-.27 2.72-.97 2.5-2.1 5.34-3.34 8.33-4.04 6.96-1.25 14.17 2.23 18.02 8.5 4.6 8.07 1.87 18.38-6.2 23.1-8.1 4.74-18.4 1.96-23.13-6.12l-1.25-1.95c-1-1.8-2.74-2.78-4.73-2.78-6.7 0-13.3-.3-20 .27-10.45.14-19.77 3.9-27.73 11-7.08 6.26-11.8 13.92-15.04 22.4-1 2.8.5 5.3 3.73 5.58h36.05c2.23 0 4.22-.97 5.96-2.78 4.48-5.3 10.57-7.24 17.28-5.57 6.7 2.1 10.7 6.54 12.3 13.5 1.75 8.36-3.85 17.55-13.3 19.36-6.7 1.4-12.3-.84-16.77-6-1.5-1.8-3.48-2.5-5.72-2.77h-34.3c-3 0-6.97 2.9-5.72 7.5 2 7.53 5.72 13.65 11.07 19.22 8.33 9.05 18.64 13.8 30.95 14.2l21.75-.14c2.24-.27 3.98-1.1 5.22-3.06 2.23-3.06 4.7-5.57 8.32-6.96 9.94-4.32 21.25 2.23 23 12.67 1.73 9.33-4.6 18.1-14.05 19.5-4.73.83-9.45-.15-13.06-3.5-2.22-1.94-4.7-1.94-7.2-1.66h-1l-23.73.14c-10.32 0-19.76-2.5-28.7-7.65-16.3-9.88-26.36-24.5-29.6-43.3-.5-1.67-1.24-3.48-2.48-4.74-2.62-2.5-4-5.55-4-9.17 0-3.63 1-6.83 3.5-9.33 1.74-1.67 2.73-3.76 3.23-6.27 2.48-10.72 7.58-20.47 15.04-28.68l4.97-4.74z" stroke="#000" stroke-opacity="0" stroke-width=".25" fill="url(#i)"/><path d="M421.94 2185.4c12.8-11.54 27.84-16.83 45-15.58l14.53.56 6.72.27c.98 0 1.73-.27 2.72-.97 2.5-2.1 5.34-3.34 8.33-4.04 6.96-1.25 14.17 2.23 18.02 8.5 4.6 8.07 1.87 18.38-6.2 23.1-8.1 4.74-18.4 1.96-23.13-6.12l-1.25-1.95c-1-1.8-2.74-2.78-4.73-2.78-6.7 0-13.3-.3-20 .27-10.45.14-19.77 3.9-27.73 11-7.08 6.26-11.8 13.92-15.04 22.4-1 2.8.5 5.3 3.73 5.58h36.05c2.23 0 4.22-.97 5.96-2.78 4.48-5.3 10.57-7.24 17.28-5.57 6.7 2.1 10.7 6.54 12.3 13.5 1.75 8.36-3.85 17.55-13.3 19.36-6.7 1.4-12.3-.84-16.77-6-1.5-1.8-3.48-2.5-5.72-2.77h-34.3c-3 0-6.97 2.9-5.72 7.5 2 7.53 5.72 13.65 11.07 19.22 8.33 9.05 18.64 13.8 30.95 14.2l21.75-.14c2.24-.27 3.98-1.1 5.22-3.06 2.23-3.06 4.7-5.57 8.32-6.96 9.94-4.32 21.25 2.23 23 12.67 1.73 9.33-4.6 18.1-14.05 19.5-4.73.83-9.45-.15-13.06-3.5-2.22-1.94-4.7-1.94-7.2-1.66h-1l-23.73.14c-10.32 0-19.76-2.5-28.7-7.65-16.3-9.88-26.36-24.5-29.6-43.3-.5-1.67-1.24-3.48-2.48-4.74-2.62-2.5-4-5.55-4-9.17 0-3.63 1-6.83 3.5-9.33 1.74-1.67 2.73-3.76 3.23-6.27 2.48-10.72 7.58-20.47 15.04-28.68l4.97-4.74z" stroke="#000" stroke-opacity="0" stroke-width=".63" fill-opacity="0"/><path d="M457.36 2120.3v26.8" stroke="#635dff" stroke-width="4" fill="none"/><path d="M459.34 2120.34h-3.95v-1.6l3.94-.9z" stroke="#635dff" stroke-width=".05" fill="#635dff"/><path d="M457.36 2163.36l-4.63-14.26H462z" stroke="#635dff" stroke-width="4" fill="#635dff"/><path d="M285.16 2352.5a6 6 0 0 1 6-6h332.4a6 6 0 0 1 6 6v114c-57.5-20.05-93.33-20.05-115.03-20.05-34.44 0-80.24 20.04-114.68 20.04-21.36 0-57.52 0-114.7-20.05z" stroke="#ba23f6" stroke-width="4" fill="#fbf0ff"/><use xlink:href="#j" transform="matrix(1,0,0,1,290.1566718924133,2351.4884775017417) translate(20.546875 53.958333333333336)"/><path d="M285.16 2012.5a6 6 0 0 1 6-6h332.4a6 6 0 0 1 6 6v114c-57.5-20.05-93.33-20.05-115.03-20.05-34.44 0-80.24 20.04-114.68 20.04-21.36 0-57.52 0-114.7-20.05z" stroke="#003d87" stroke-width="4" fill="#6db1ff"/><use xlink:href="#k" transform="matrix(1,0,0,1,290.1566718924133,2011.4884775017417) translate(28.522135416666686 53.958333333333336)"/><path d="M457.36 2342.5v-20.68" stroke="#635dff" stroke-width="4" fill="none"/><path d="M459.34 2344.5h-3.95v-2.06h3.94z" stroke="#635dff" stroke-width=".05" fill="#635dff"/><path d="M457.36 2305.56l4.64 14.27h-9.27z" stroke="#635dff" stroke-width="4" fill="#635dff"/><defs><path d="M180 0v-1490h908v168H370v486h669v168H370v500h727V0H180" id="l"/><path d="M338-1490V0H158v-1490h180" id="m"/><path d="M471 26C259 26 90-98 90-318c0-256 228-303 435-329 202-27 287-16 287-108 0-139-79-219-234-219-161 0-248 86-283 164l-173-57c86-203 278-265 451-265 150 0 419 46 419 395V0H815v-152h-12C765-73 660 26 471 26zm31-159c199 0 310-134 310-271v-155c-30 35-226 55-295 64-131 17-246 59-246 186 0 116 97 176 231 176" id="n"/><path d="M538 24C308 24 148-78 108-271l171-41c32 123 123 178 257 178 156 0 256-77 256-169 0-77-54-128-164-154l-186-44c-203-48-300-148-300-305 0-192 176-326 414-326 230 0 351 112 402 269l-163 42c-31-80-94-158-238-158-133 0-233 69-233 162 0 83 57 129 188 160l169 40c203 48 298 149 298 302 0 196-179 339-441 339" id="o"/><path d="M598-1118v154H368v674c0 100 37 144 132 144 23 0 62-6 92-12L629-6c-37 13-88 20-134 20-193 0-307-107-307-290v-688H20v-154h168v-266h180v266h230" id="p"/><path d="M158 0v-1118h180V0H158zm91-1301c-68 0-125-53-125-119s57-119 125-119c69 0 126 53 126 119s-57 119-126 119" id="q"/><path d="M613 24c-304 0-509-231-509-576 0-350 205-580 509-580 216 0 392 114 453 309l-173 49c-33-115-133-197-280-197-223 0-326 196-326 419 0 220 103 415 326 415 150 0 252-85 285-206l172 49C1010-95 832 24 613 24" id="r"/><path d="M789 20c-398 0-667-293-667-764 0-473 273-766 655-766 315 0 558 198 612 487h-196c-61-191-204-311-415-311-262 0-471 207-471 590 0 380 208 588 482 588 249 0 420-165 425-427H828v-166h572v163c0 370-256 606-611 606" id="s"/><path d="M158 0v-1118h174v172h12c41-113 157-188 290-188 26 0 70 2 91 3v181c-11-2-60-10-108-10-161 0-279 109-279 260V0H158" id="t"/><path d="M158 418v-1536h174v179h20c37-59 106-193 324-193 279 0 474 222 474 576 0 356-194 580-473 580-213 0-288-135-325-197h-14v591H158zm492-555c209 0 317-186 317-421 0-232-105-413-317-413-206 0-314 166-314 413 0 249 111 421 314 421" id="u"/><path d="M338-670V0H158v-1490h180v566c73-149 190-208 336-208 226 0 379 139 379 422V0H872v-695c0-172-96-275-252-275-161 0-282 109-282 300" id="v"/><g id="a"><use transform="matrix(0.013020833333333334,0,0,0.013020833333333334,0,0)" xlink:href="#l"/><use transform="matrix(0.013020833333333334,0,0,0.013020833333333334,16.028645833333336,0)" xlink:href="#m"/><use transform="matrix(0.013020833333333334,0,0,0.013020833333333334,22.48697916666667,0)" xlink:href="#n"/><use transform="matrix(0.013020833333333334,0,0,0.013020833333333334,37.46093750000001,0)" xlink:href="#o"/><use transform="matrix(0.013020833333333334,0,0,0.013020833333333334,51.53645833333334,0)" xlink:href="#p"/><use transform="matrix(0.013020833333333334,0,0,0.013020833333333334,60.26041666666668,0)" xlink:href="#q"/><use transform="matrix(0.013020833333333334,0,0,0.013020833333333334,66.71875000000001,0)" xlink:href="#r"/><use transform="matrix(0.013020833333333334,0,0,0.013020833333333334,81.95312500000001,0)" xlink:href="#s"/><use transform="matrix(0.013020833333333334,0,0,0.013020833333333334,101.84895833333334,0)" xlink:href="#t"/><use transform="matrix(0.013020833333333334,0,0,0.013020833333333334,111.88802083333334,0)" xlink:href="#n"/><use transform="matrix(0.013020833333333334,0,0,0.013020833333333334,126.86197916666667,0)" xlink:href="#u"/><use transform="matrix(0.013020833333333334,0,0,0.013020833333333334,143.19010416666669,0)" xlink:href="#v"/></g><path d="M52 0l541-1490h220L1361 0h-200l-149-416H398L254 0H52zm404-582h497c-103-290-145-390-251-756-108 377-145 460-246 756" id="w"/><path d="M613 24c-304 0-509-231-509-576 0-350 205-580 509-580 305 0 511 230 511 580 0 345-206 576-511 576zm0-161c226 0 329-195 329-415 0-222-103-419-329-419-223 0-326 196-326 419 0 220 103 415 326 415" id="x"/><path d="M338-670V0H158v-1118h173l1 207c72-158 192-221 342-221 226 0 378 139 378 422V0H872v-695c0-172-96-275-252-275-161 0-282 109-282 300" id="y"/><g id="b"><use transform="matrix(0.013020833333333334,0,0,0.013020833333333334,0,0)" xlink:href="#w"/><use transform="matrix(0.013020833333333334,0,0,0.013020833333333334,18.3984375,0)" xlink:href="#u"/><use transform="matrix(0.013020833333333334,0,0,0.013020833333333334,34.7265625,0)" xlink:href="#u"/><use transform="matrix(0.013020833333333334,0,0,0.013020833333333334,51.0546875,0)" xlink:href="#m"/><use transform="matrix(0.013020833333333334,0,0,0.013020833333333334,57.513020833333336,0)" xlink:href="#q"/><use transform="matrix(0.013020833333333334,0,0,0.013020833333333334,63.97135416666667,0)" xlink:href="#r"/><use transform="matrix(0.013020833333333334,0,0,0.013020833333333334,79.46614583333334,0)" xlink:href="#n"/><use transform="matrix(0.013020833333333334,0,0,0.013020833333333334,94.44010416666667,0)" xlink:href="#p"/><use transform="matrix(0.013020833333333334,0,0,0.013020833333333334,103.1640625,0)" xlink:href="#q"/><use transform="matrix(0.013020833333333334,0,0,0.013020833333333334,109.62239583333334,0)" xlink:href="#x"/><use transform="matrix(0.013020833333333334,0,0,0.013020833333333334,125.61197916666664,0)" xlink:href="#y"/></g><path d="M218-607c0-325 108-727 258-974h175c-155 315-250 682-250 974 0 265 78 531 250 886H476C306-10 218-315 218-607" id="z"/><path d="M180 0v-1490h510c348 0 508 209 508 474 0 266-160 477-507 477H370V0H180zm190-706h312c236 0 327-133 327-310 0-176-91-307-329-307H370v617" id="A"/><path d="M577 24c-279 0-473-224-473-580 0-354 195-576 474-576 218 0 287 134 324 193h14v-551h180V0H922v-173h-20C865-111 790 24 577 24zm27-161c203 0 314-172 314-421 0-247-108-413-314-413-212 0-317 181-317 413 0 235 108 421 317 421" id="B"/><path d="M537 14c-226 0-379-139-379-422v-710h180v695c0 172 97 275 253 275 160 0 281-109 281-300v-670h181V0H879v-209C806-46 684 14 537 14" id="C"/><path d="M96 279C273-86 346-350 346-607c0-292-95-659-250-974h175c150 246 258 650 258 974 0 297-91 602-258 886H96" id="D"/><g id="c"><use transform="matrix(0.013020833333333334,0,0,0.013020833333333334,0,0)" xlink:href="#z"/><use transform="matrix(0.013020833333333334,0,0,0.013020833333333334,9.7265625,0)" xlink:href="#A"/><use transform="matrix(0.013020833333333334,0,0,0.013020833333333334,26.7578125,0)" xlink:href="#t"/><use transform="matrix(0.013020833333333334,0,0,0.013020833333333334,36.35416666666667,0)" xlink:href="#x"/><use transform="matrix(0.013020833333333334,0,0,0.013020833333333334,52.34375000000001,0)" xlink:href="#B"/><use transform="matrix(0.013020833333333334,0,0,0.013020833333333334,68.671875,0)" xlink:href="#C"/><use transform="matrix(0.013020833333333334,0,0,0.013020833333333334,84.44010416666667,0)" xlink:href="#r"/><use transform="matrix(0.013020833333333334,0,0,0.013020833333333334,99.67447916666667,0)" xlink:href="#p"/><use transform="matrix(0.013020833333333334,0,0,0.013020833333333334,108.3984375,0)" xlink:href="#q"/><use transform="matrix(0.013020833333333334,0,0,0.013020833333333334,114.85677083333334,0)" xlink:href="#x"/><use transform="matrix(0.013020833333333334,0,0,0.013020833333333334,130.84635416666666,0)" xlink:href="#y"/><use transform="matrix(0.013020833333333334,0,0,0.013020833333333334,146.6015625,0)" xlink:href="#D"/></g><path d="M657 26c-323 0-524-166-541-416h195c15 169 171 246 346 246 202 0 356-106 356-265 5-203-294-238-475-293-239-73-380-191-380-389 0-252 224-419 512-419 294 0 499 171 508 396H992c-17-145-151-228-328-228-193 0-321 102-321 242 0 156 175 211 284 241l149 41c160 44 422 134 422 412 0 244-197 432-541 432" id="E"/><path d="M692-1560L212 224H46l480-1784h166" id="F"/><path d="M784 20c-382 0-662-292-662-764 0-473 280-766 662-766s660 293 660 766c0 472-278 764-660 764zm0-176c266 0 475-207 475-588 0-383-209-590-475-590-268 0-477 208-477 590 0 380 209 588 477 588" id="G"/><g id="d"><use transform="matrix(0.010850694444444444,0,0,0.010850694444444444,0,0)" xlink:href="#l"/><use transform="matrix(0.010850694444444444,0,0,0.010850694444444444,13.35720486111111,0)" xlink:href="#E"/><use transform="matrix(0.010850694444444444,0,0,0.010850694444444444,27.61501736111111,0)" xlink:href="#F"/><use transform="matrix(0.010850694444444444,0,0,0.010850694444444444,35.622829861111114,0)" xlink:href="#G"/><use transform="matrix(0.010850694444444444,0,0,0.010850694444444444,52.61501736111112,0)" xlink:href="#E"/></g><path d="M158 0v-1118h175l1 205c55-151 181-225 313-225 147 0 245 90 285 228 53-141 190-228 352-228 194 0 352 125 352 384V0h-181v-749c0-161-105-225-225-225-151 0-243 103-243 244V0H807v-767c0-124-93-207-219-207-131 0-250 92-250 270V0H158" id="H"/><path d="M628 24c-324 0-524-230-524-574 0-343 198-582 503-582 237 0 487 146 487 559v75H286c9 234 145 362 343 362 132 0 231-58 273-172l174 48C1024-91 857 24 628 24zM287-650h624c-17-190-120-322-304-322-192 0-309 151-320 322" id="I"/><g id="e"><use transform="matrix(0.013020833333333334,0,0,0.013020833333333334,0,0)" xlink:href="#w"/><use transform="matrix(0.013020833333333334,0,0,0.013020833333333334,18.3984375,0)" xlink:href="#B"/><use transform="matrix(0.013020833333333334,0,0,0.013020833333333334,34.7265625,0)" xlink:href="#H"/><use transform="matrix(0.013020833333333334,0,0,0.013020833333333334,58.0859375,0)" xlink:href="#q"/><use transform="matrix(0.013020833333333334,0,0,0.013020833333333334,64.54427083333333,0)" xlink:href="#y"/><use transform="matrix(0.013020833333333334,0,0,0.013020833333333334,80.29947916666666,0)" xlink:href="#q"/><use transform="matrix(0.013020833333333334,0,0,0.013020833333333334,86.75781249999999,0)" xlink:href="#o"/><use transform="matrix(0.013020833333333334,0,0,0.013020833333333334,100.83333333333331,0)" xlink:href="#p"/><use transform="matrix(0.013020833333333334,0,0,0.013020833333333334,109.29687499999999,0)" xlink:href="#I"/><use transform="matrix(0.013020833333333334,0,0,0.013020833333333334,124.84374999999999,0)" xlink:href="#t"/><use transform="matrix(0.013020833333333334,0,0,0.013020833333333334,134.88281249999997,0)" xlink:href="#o"/></g><g id="f"><use transform="matrix(0.015190972222222224,0,0,0.015190972222222224,0,0)" xlink:href="#w"/><use transform="matrix(0.015190972222222224,0,0,0.015190972222222224,21.464843750000004,0)" xlink:href="#u"/><use transform="matrix(0.015190972222222224,0,0,0.015190972222222224,40.51432291666667,0)" xlink:href="#u"/></g><path d="M409 0L70-1118h191c89 329 165 560 243 925 75-353 154-601 240-925h192c85 325 161 564 235 922 77-354 157-598 244-922h191L1267 0h-179c-86-307-176-590-250-913C763-588 675-308 588 0H409" id="J"/><g id="g"><use transform="matrix(0.015190972222222224,0,0,0.015190972222222224,0,0)" xlink:href="#G"/><use transform="matrix(0.015190972222222224,0,0,0.015190972222222224,23.789062500000004,0)" xlink:href="#J"/><use transform="matrix(0.015190972222222224,0,0,0.015190972222222224,49.24913194444445,0)" xlink:href="#y"/><use transform="matrix(0.015190972222222224,0,0,0.015190972222222224,67.63020833333334,0)" xlink:href="#I"/><use transform="matrix(0.015190972222222224,0,0,0.015190972222222224,85.76822916666669,0)" xlink:href="#t"/></g><path d="M783 20c-382 0-661-292-661-764 0-473 279-766 661-766 302 0 548 182 601 489h-190c-42-204-217-313-411-313-268 0-476 208-476 590 0 381 209 588 476 588 195 0 369-110 411-313h190c-52 303-296 489-601 489" id="K"/><path d="M678-1118v154H420V0H240v-964H20v-154h220v-149c0-194 155-293 318-293 85 0 141 18 168 30l-50 154c-19-6-47-17-97-17-111 0-159 58-159 166v109h258" id="L"/><path d="M611 442c-248 0-391-105-460-228l146-94c47 65 117 165 314 165 178 0 307-82 307-266v-224h-17C863-141 792-18 576-18c-268 0-472-195-472-546 0-346 197-568 476-568 216 0 288 133 326 193h17v-179h175V29c0 289-215 413-487 413zm-5-620c203 0 314-146 314-390 0-237-108-403-314-403-213 0-319 180-319 403 0 230 109 390 319 390" id="M"/><g id="h"><use transform="matrix(0.013020833333333334,0,0,0.013020833333333334,0,0)" xlink:href="#K"/><use transform="matrix(0.013020833333333334,0,0,0.013020833333333334,19.479166666666668,0)" xlink:href="#x"/><use transform="matrix(0.013020833333333334,0,0,0.013020833333333334,35.46875,0)" xlink:href="#y"/><use transform="matrix(0.013020833333333334,0,0,0.013020833333333334,51.223958333333336,0)" xlink:href="#L"/><use transform="matrix(0.013020833333333334,0,0,0.013020833333333334,61.09375,0)" xlink:href="#q"/><use transform="matrix(0.013020833333333334,0,0,0.013020833333333334,67.55208333333333,0)" xlink:href="#M"/><use transform="matrix(0.013020833333333334,0,0,0.013020833333333334,83.90625,0)" xlink:href="#C"/><use transform="matrix(0.013020833333333334,0,0,0.013020833333333334,99.67447916666667,0)" xlink:href="#t"/><use transform="matrix(0.013020833333333334,0,0,0.013020833333333334,109.27083333333334,0)" xlink:href="#I"/><use transform="matrix(0.013020833333333334,0,0,0.013020833333333334,124.81770833333334,0)" xlink:href="#o"/></g><linearGradient gradientUnits="userSpaceOnUse" id="i" x1="395.09" y1="2165.26" x2="519.37" y2="2304.73"><stop offset="0%" stop-color="#0a35f9"/><stop offset="50%" stop-color="#415fff"/><stop offset="100%" stop-color="#a93ff6"/></linearGradient><path d="M934 0v166H0V0h934" id="N"/><path d="M295 13c-75 0-135-60-135-135s60-135 135-135 135 60 135 135S370 13 295 13" id="O"/><path d="M140 405l46-156c120 36 205 19 263-150l32-93L54-1118h197c107 313 237 620 324 950 87-331 219-637 326-950h196L606 167c-68 178-176 259-334 259-64 0-113-12-132-21" id="P"/><g id="j"><use transform="matrix(0.013020833333333334,0,0,0.013020833333333334,0,0)" xlink:href="#t"/><use transform="matrix(0.013020833333333334,0,0,0.013020833333333334,10.0390625,0)" xlink:href="#C"/><use transform="matrix(0.013020833333333334,0,0,0.013020833333333334,25.807291666666668,0)" xlink:href="#y"/><use transform="matrix(0.013020833333333334,0,0,0.013020833333333334,41.5625,0)" xlink:href="#p"/><use transform="matrix(0.013020833333333334,0,0,0.013020833333333334,50.286458333333336,0)" xlink:href="#q"/><use transform="matrix(0.013020833333333334,0,0,0.013020833333333334,56.74479166666667,0)" xlink:href="#H"/><use transform="matrix(0.013020833333333334,0,0,0.013020833333333334,80.10416666666667,0)" xlink:href="#I"/><use transform="matrix(0.013020833333333334,0,0,0.013020833333333334,95.65104166666667,0)" xlink:href="#N"/><use transform="matrix(0.013020833333333334,0,0,0.013020833333333334,108.7109375,0)" xlink:href="#H"/><use transform="matrix(0.013020833333333334,0,0,0.013020833333333334,132.0703125,0)" xlink:href="#I"/><use transform="matrix(0.013020833333333334,0,0,0.013020833333333334,147.6171875,0)" xlink:href="#p"/><use transform="matrix(0.013020833333333334,0,0,0.013020833333333334,156.47135416666669,0)" xlink:href="#n"/><use transform="matrix(0.013020833333333334,0,0,0.013020833333333334,171.44531250000003,0)" xlink:href="#B"/><use transform="matrix(0.013020833333333334,0,0,0.013020833333333334,187.77343750000003,0)" xlink:href="#n"/><use transform="matrix(0.013020833333333334,0,0,0.013020833333333334,202.74739583333337,0)" xlink:href="#p"/><use transform="matrix(0.013020833333333334,0,0,0.013020833333333334,211.60156250000006,0)" xlink:href="#n"/><use transform="matrix(0.013020833333333334,0,0,0.013020833333333334,226.5755208333334,0)" xlink:href="#O"/><use transform="matrix(0.013020833333333334,0,0,0.013020833333333334,234.25781250000006,0)" xlink:href="#P"/><use transform="matrix(0.013020833333333334,0,0,0.013020833333333334,249.1145833333334,0)" xlink:href="#n"/><use transform="matrix(0.013020833333333334,0,0,0.013020833333333334,264.0885416666667,0)" xlink:href="#H"/><use transform="matrix(0.013020833333333334,0,0,0.013020833333333334,287.4479166666667,0)" xlink:href="#m"/></g><g id="k"><use transform="matrix(0.013020833333333334,0,0,0.013020833333333334,0,0)" xlink:href="#B"/><use transform="matrix(0.013020833333333334,0,0,0.013020833333333334,16.328125,0)" xlink:href="#n"/><use transform="matrix(0.013020833333333334,0,0,0.013020833333333334,31.302083333333336,0)" xlink:href="#p"/><use transform="matrix(0.013020833333333334,0,0,0.013020833333333334,40.15625,0)" xlink:href="#n"/><use transform="matrix(0.013020833333333334,0,0,0.013020833333333334,55.130208333333336,0)" xlink:href="#o"/><use transform="matrix(0.013020833333333334,0,0,0.013020833333333334,69.20572916666667,0)" xlink:href="#p"/><use transform="matrix(0.013020833333333334,0,0,0.013020833333333334,77.66927083333333,0)" xlink:href="#x"/><use transform="matrix(0.013020833333333334,0,0,0.013020833333333334,93.65885416666666,0)" xlink:href="#t"/><use transform="matrix(0.013020833333333334,0,0,0.013020833333333334,103.25520833333333,0)" xlink:href="#I"/><use transform="matrix(0.013020833333333334,0,0,0.013020833333333334,118.80208333333334,0)" xlink:href="#N"/><use transform="matrix(0.013020833333333334,0,0,0.013020833333333334,130.96354166666666,0)" xlink:href="#r"/><use transform="matrix(0.013020833333333334,0,0,0.013020833333333334,146.19791666666666,0)" xlink:href="#x"/><use transform="matrix(0.013020833333333334,0,0,0.013020833333333334,162.1875,0)" xlink:href="#y"/><use transform="matrix(0.013020833333333334,0,0,0.013020833333333334,177.94270833333334,0)" xlink:href="#L"/><use transform="matrix(0.013020833333333334,0,0,0.013020833333333334,187.8125,0)" xlink:href="#q"/><use transform="matrix(0.013020833333333334,0,0,0.013020833333333334,194.27083333333334,0)" xlink:href="#M"/><use transform="matrix(0.013020833333333334,0,0,0.013020833333333334,210.625,0)" xlink:href="#O"/><use transform="matrix(0.013020833333333334,0,0,0.013020833333333334,218.30729166666669,0)" xlink:href="#P"/><use transform="matrix(0.013020833333333334,0,0,0.013020833333333334,233.16406249999997,0)" xlink:href="#n"/><use transform="matrix(0.013020833333333334,0,0,0.013020833333333334,248.1380208333333,0)" xlink:href="#H"/><use transform="matrix(0.013020833333333334,0,0,0.013020833333333334,271.4973958333333,0)" xlink:href="#m"/></g></defs></g></svg>