<svg xmlns="http://www.w3.org/2000/svg" xmlns:xlink="http://www.w3.org/1999/xlink" xmlns:lucid="lucid" width="1352" height="693"><g transform="translate(350 -3534)" lucid:page-tab-id="0_0"><path d="M-1000 0h2500v4500h-2500z" fill="#fff"/><path d="M239.47 3606a6 6 0 0 1 6-6H934a6 6 0 0 1 6 6v554.5a6 6 0 0 1-6 6H245.47a6 6 0 0 1-6-6z" stroke="#003d87" stroke-width="4" fill="#edf5ff"/><use xlink:href="#a" transform="matrix(1,0,0,1,244.46902821591823,3605) translate(109.67317708333331 25.833333333333336)"/><use xlink:href="#b" transform="matrix(1,0,0,1,244.46902821591823,3605) translate(276.13151041666663 25.833333333333336)"/><use xlink:href="#c" transform="matrix(1,0,0,1,244.46902821591823,3605) translate(424.9986979166667 25.833333333333336)"/><path d="M900 3967.05c0 11.04-40.3 20-90 20s-90-8.96-90-20v-160c0-11.05 40.3-20 90-20s90 8.95 90 20z" stroke="#003d87" stroke-width="4" fill="#6db1ff"/><path d="M900 3807.05c0 11.04-40.3 20-90 20s-90-8.96-90-20" stroke="#003d87" stroke-width="4" fill="none"/><use xlink:href="#d" transform="matrix(1,0,0,1,725,3832.0476363570997) translate(51.56358506944444 82.46527777777777)"/><path d="M-291.67 3792.68a6 6 0 0 1 6-6h288a6 6 0 0 1 6 6v209.14a6 6 0 0 1-6 6h-288a6 6 0 0 1-6-6z" stroke="#54c45e" stroke-width="2" fill="#c3f7c8"/><use xlink:href="#e" transform="matrix(1,0,0,1,-279.6696719161174,3798.6836219391753) translate(25.769097222222214 30.138888888888893)"/><use xlink:href="#f" transform="matrix(1,0,0,1,-279.6696719161174,3798.6836219391753) translate(165.73871527777777 30.138888888888893)"/><path d="M-258.97 3866.7a6 6 0 0 1 6-6h222.6a6 6 0 0 1 6 6v114c-39.18-20.03-63.58-20.03-78.36-20.03-23.46 0-54.66 20.04-78.12 20.04-14.54 0-39.18 0-78.12-20.03z" stroke="#fcce14" stroke-width="4" fill="#fff3d9"/><use xlink:href="#g" transform="matrix(1,0,0,1,-253.96833333333325,3865.7111623353308) translate(11.054687499999986 53.958333333333336)"/><path d="M402.43 3843.05c12.8-11.56 27.84-16.85 45-15.6l14.54.56 6.7.3c1 0 1.75-.3 2.74-1 2.5-2.07 5.36-3.33 8.34-4.02 6.96-1.26 14.17 2.22 18.02 8.5 4.6 8.07 1.87 18.37-6.2 23.1-8.1 4.74-18.4 1.95-23.13-6.12l-1.24-1.95c-1-1.8-2.75-2.78-4.74-2.78-6.7 0-13.3-.28-20 .28-10.45.14-19.77 3.9-27.72 11-7.1 6.27-11.8 13.93-15.05 22.42-1 2.78.5 5.3 3.72 5.57h36.05c2.24 0 4.22-1 5.96-2.8 4.48-5.3 10.57-7.24 17.28-5.57 6.72 2.1 10.7 6.55 12.32 13.5 1.74 8.37-3.86 17.55-13.3 19.36-6.7 1.4-12.3-.84-16.78-6-1.5-1.8-3.48-2.5-5.72-2.78h-34.3c-3 0-6.97 2.93-5.72 7.52 2 7.52 5.72 13.65 11.06 19.22 8.33 9.05 18.64 13.78 30.95 14.2l21.76-.14c2.24-.28 3.98-1.12 5.22-3.06 2.24-3.07 4.72-5.57 8.33-6.97 9.95-4.32 21.26 2.22 23 12.66 1.74 9.33-4.6 18.1-14.04 19.5-4.72.83-9.45-.14-13.05-3.48-2.23-1.95-4.72-1.95-7.2-1.67h-1l-23.74.14c-10.3 0-19.76-2.5-28.7-7.65-16.3-9.9-26.36-24.52-29.6-43.32-.5-1.67-1.23-3.48-2.48-4.73-2.6-2.5-3.97-5.57-3.97-9.2 0-3.6 1-6.8 3.5-9.32 1.73-1.67 2.72-3.76 3.22-6.26 2.48-10.72 7.58-20.47 15.04-28.7l4.97-4.72z" stroke="#000" stroke-opacity="0" stroke-width=".25" fill="url(#h)"/><path d="M402.43 3843.05c12.8-11.56 27.84-16.85 45-15.6l14.54.56 6.7.3c1 0 1.75-.3 2.74-1 2.5-2.07 5.36-3.33 8.34-4.02 6.96-1.26 14.17 2.22 18.02 8.5 4.6 8.07 1.87 18.37-6.2 23.1-8.1 4.74-18.4 1.95-23.13-6.12l-1.24-1.95c-1-1.8-2.75-2.78-4.74-2.78-6.7 0-13.3-.28-20 .28-10.45.14-19.77 3.9-27.72 11-7.1 6.27-11.8 13.93-15.05 22.42-1 2.78.5 5.3 3.72 5.57h36.05c2.24 0 4.22-1 5.96-2.8 4.48-5.3 10.57-7.24 17.28-5.57 6.72 2.1 10.7 6.55 12.32 13.5 1.74 8.37-3.86 17.55-13.3 19.36-6.7 1.4-12.3-.84-16.78-6-1.5-1.8-3.48-2.5-5.72-2.78h-34.3c-3 0-6.97 2.93-5.72 7.52 2 7.52 5.72 13.65 11.06 19.22 8.33 9.05 18.64 13.78 30.95 14.2l21.76-.14c2.24-.28 3.98-1.12 5.22-3.06 2.24-3.07 4.72-5.57 8.33-6.97 9.95-4.32 21.26 2.22 23 12.66 1.74 9.33-4.6 18.1-14.04 19.5-4.72.83-9.45-.14-13.05-3.48-2.23-1.95-4.72-1.95-7.2-1.67h-1l-23.74.14c-10.3 0-19.76-2.5-28.7-7.65-16.3-9.9-26.36-24.52-29.6-43.32-.5-1.67-1.23-3.48-2.48-4.73-2.6-2.5-3.97-5.57-3.97-9.2 0-3.6 1-6.8 3.5-9.32 1.73-1.67 2.72-3.76 3.22-6.26 2.48-10.72 7.58-20.47 15.04-28.7l4.97-4.72z" stroke="#000" stroke-opacity="0" stroke-width=".63" fill-opacity="0"/><path d="M445.2 4016v-36.34" stroke="#008a0e" stroke-width="4" fill="none"/><path d="M447.17 4018h-3.96v-2.05h3.97z" stroke="#008a0e" stroke-width=".05" fill="#008a0e"/><path d="M445.2 3963.4l4.63 14.26h-9.28z" stroke="#008a0e" stroke-width="4" fill="#008a0e"/><path d="M477.26 3891.68h39.42" stroke="#008a0e" stroke-width="4" fill="none"/><path d="M477.3 3893.66h-2.23l.24-1.3-.2-2.65h2.2z" stroke="#008a0e" stroke-width=".05" fill="#008a0e"/><path d="M532.95 3891.68l-14.27 4.64v-9.27z" stroke="#008a0e" stroke-width="4" fill="#008a0e"/><path d="M539.42 3876.55a6 6 0 0 1 6-6h97.73a6 6 0 0 1 6 6v30.27a6 6 0 0 1-6 6h-97.73a6 6 0 0 1-6-6z" fill="none"/><use xlink:href="#i" transform="matrix(1,0,0,1,544.4190374997918,3875.5447791240426) translate(0 26.200520833333336)"/><path d="M651.15 3887.05h44.1" stroke="#008a0e" stroke-width="4" fill="none"/><path d="M651.2 3889.02h-2.05v-3.95h2.05z" stroke="#008a0e" stroke-width=".05" fill="#008a0e"/><path d="M711.53 3887.05l-14.27 4.63v-9.27z" stroke="#008a0e" stroke-width="4" fill="#008a0e"/><path d="M11.33 3897.25h63.5" stroke="#008a0e" stroke-width="4" fill="none"/><path d="M11.38 3899.23H9.33v-3.95h2.05z" stroke="#008a0e" stroke-width=".05" fill="#008a0e"/><path d="M91.1 3897.25l-14.27 4.64v-9.28z" stroke="#008a0e" stroke-width="4" fill="#008a0e"/><path d="M97.57 3882.1a6 6 0 0 1 6-6h97.73a6 6 0 0 1 6 6v30.3a6 6 0 0 1-6 6h-97.73a6 6 0 0 1-6-6z" fill="none"/><use xlink:href="#i" transform="matrix(1,0,0,1,102.5686457515634,3881.1147156891752) translate(0 26.200520833333336)"/><path d="M209.3 3892.62H353" stroke="#008a0e" stroke-width="4" fill="none"/><path d="M209.35 3894.6h-2.05v-3.96h2.05z" stroke="#008a0e" stroke-width=".05" fill="#008a0e"/><path d="M369.26 3892.62l-14.26 4.63v-9.27z" stroke="#008a0e" stroke-width="4" fill="#008a0e"/><path d="M273 3666a6 6 0 0 1 6-6h332.4a6 6 0 0 1 6 6v114c-57.52-20.04-93.34-20.04-115.04-20.04-34.44 0-80.25 20.04-114.7 20.04-21.34 0-57.5 0-114.68-20.04z" stroke="#fcce14" stroke-width="4" fill="#fff3d9"/><use xlink:href="#j" transform="matrix(1,0,0,1,277.9848587576863,3665) translate(66.05468749999999 53.958333333333336)"/><path d="M445.2 3773.8v30.8" stroke="#008a0e" stroke-width="4" fill="none"/><path d="M447.17 3773.85h-3.96v-1.6l3.97-.9z" stroke="#008a0e" stroke-width=".05" fill="#008a0e"/><path d="M445.2 3820.87l-4.65-14.27h9.27z" stroke="#008a0e" stroke-width="4" fill="#008a0e"/><path d="M273 4026a6 6 0 0 1 6-6h332.4a6 6 0 0 1 6 6v114c-57.52-20.04-93.34-20.04-115.04-20.04-34.44 0-80.25 20.04-114.7 20.04-21.34 0-57.5 0-114.68-20.04z" stroke="#ba23f6" stroke-width="4" fill="#fbf0ff"/><g><use xlink:href="#k" transform="matrix(1,0,0,1,277.9848587576863,4025) translate(20.546875 53.958333333333336)"/></g><defs><path d="M180 0v-1490h908v168H370v486h669v168H370v500h727V0H180" id="l"/><path d="M338-1490V0H158v-1490h180" id="m"/><path d="M471 26C259 26 90-98 90-318c0-256 228-303 435-329 202-27 287-16 287-108 0-139-79-219-234-219-161 0-248 86-283 164l-173-57c86-203 278-265 451-265 150 0 419 46 419 395V0H815v-152h-12C765-73 660 26 471 26zm31-159c199 0 310-134 310-271v-155c-30 35-226 55-295 64-131 17-246 59-246 186 0 116 97 176 231 176" id="n"/><path d="M538 24C308 24 148-78 108-271l171-41c32 123 123 178 257 178 156 0 256-77 256-169 0-77-54-128-164-154l-186-44c-203-48-300-148-300-305 0-192 176-326 414-326 230 0 351 112 402 269l-163 42c-31-80-94-158-238-158-133 0-233 69-233 162 0 83 57 129 188 160l169 40c203 48 298 149 298 302 0 196-179 339-441 339" id="o"/><path d="M598-1118v154H368v674c0 100 37 144 132 144 23 0 62-6 92-12L629-6c-37 13-88 20-134 20-193 0-307-107-307-290v-688H20v-154h168v-266h180v266h230" id="p"/><path d="M158 0v-1118h180V0H158zm91-1301c-68 0-125-53-125-119s57-119 125-119c69 0 126 53 126 119s-57 119-126 119" id="q"/><path d="M613 24c-304 0-509-231-509-576 0-350 205-580 509-580 216 0 392 114 453 309l-173 49c-33-115-133-197-280-197-223 0-326 196-326 419 0 220 103 415 326 415 150 0 252-85 285-206l172 49C1010-95 832 24 613 24" id="r"/><path d="M789 20c-398 0-667-293-667-764 0-473 273-766 655-766 315 0 558 198 612 487h-196c-61-191-204-311-415-311-262 0-471 207-471 590 0 380 208 588 482 588 249 0 420-165 425-427H828v-166h572v163c0 370-256 606-611 606" id="s"/><path d="M158 0v-1118h174v172h12c41-113 157-188 290-188 26 0 70 2 91 3v181c-11-2-60-10-108-10-161 0-279 109-279 260V0H158" id="t"/><path d="M158 418v-1536h174v179h20c37-59 106-193 324-193 279 0 474 222 474 576 0 356-194 580-473 580-213 0-288-135-325-197h-14v591H158zm492-555c209 0 317-186 317-421 0-232-105-413-317-413-206 0-314 166-314 413 0 249 111 421 314 421" id="u"/><path d="M338-670V0H158v-1490h180v566c73-149 190-208 336-208 226 0 379 139 379 422V0H872v-695c0-172-96-275-252-275-161 0-282 109-282 300" id="v"/><g id="a"><use transform="matrix(0.013020833333333334,0,0,0.013020833333333334,0,0)" xlink:href="#l"/><use transform="matrix(0.013020833333333334,0,0,0.013020833333333334,16.028645833333336,0)" xlink:href="#m"/><use transform="matrix(0.013020833333333334,0,0,0.013020833333333334,22.48697916666667,0)" xlink:href="#n"/><use transform="matrix(0.013020833333333334,0,0,0.013020833333333334,37.46093750000001,0)" xlink:href="#o"/><use transform="matrix(0.013020833333333334,0,0,0.013020833333333334,51.53645833333334,0)" xlink:href="#p"/><use transform="matrix(0.013020833333333334,0,0,0.013020833333333334,60.26041666666668,0)" xlink:href="#q"/><use transform="matrix(0.013020833333333334,0,0,0.013020833333333334,66.71875000000001,0)" xlink:href="#r"/><use transform="matrix(0.013020833333333334,0,0,0.013020833333333334,81.95312500000001,0)" xlink:href="#s"/><use transform="matrix(0.013020833333333334,0,0,0.013020833333333334,101.84895833333334,0)" xlink:href="#t"/><use transform="matrix(0.013020833333333334,0,0,0.013020833333333334,111.88802083333334,0)" xlink:href="#n"/><use transform="matrix(0.013020833333333334,0,0,0.013020833333333334,126.86197916666667,0)" xlink:href="#u"/><use transform="matrix(0.013020833333333334,0,0,0.013020833333333334,143.19010416666669,0)" xlink:href="#v"/></g><path d="M52 0l541-1490h220L1361 0h-200l-149-416H398L254 0H52zm404-582h497c-103-290-145-390-251-756-108 377-145 460-246 756" id="w"/><path d="M613 24c-304 0-509-231-509-576 0-350 205-580 509-580 305 0 511 230 511 580 0 345-206 576-511 576zm0-161c226 0 329-195 329-415 0-222-103-419-329-419-223 0-326 196-326 419 0 220 103 415 326 415" id="x"/><path d="M338-670V0H158v-1118h173l1 207c72-158 192-221 342-221 226 0 378 139 378 422V0H872v-695c0-172-96-275-252-275-161 0-282 109-282 300" id="y"/><g id="b"><use transform="matrix(0.013020833333333334,0,0,0.013020833333333334,0,0)" xlink:href="#w"/><use transform="matrix(0.013020833333333334,0,0,0.013020833333333334,18.3984375,0)" xlink:href="#u"/><use transform="matrix(0.013020833333333334,0,0,0.013020833333333334,34.7265625,0)" xlink:href="#u"/><use transform="matrix(0.013020833333333334,0,0,0.013020833333333334,51.0546875,0)" xlink:href="#m"/><use transform="matrix(0.013020833333333334,0,0,0.013020833333333334,57.513020833333336,0)" xlink:href="#q"/><use transform="matrix(0.013020833333333334,0,0,0.013020833333333334,63.97135416666667,0)" xlink:href="#r"/><use transform="matrix(0.013020833333333334,0,0,0.013020833333333334,79.46614583333334,0)" xlink:href="#n"/><use transform="matrix(0.013020833333333334,0,0,0.013020833333333334,94.44010416666667,0)" xlink:href="#p"/><use transform="matrix(0.013020833333333334,0,0,0.013020833333333334,103.1640625,0)" xlink:href="#q"/><use transform="matrix(0.013020833333333334,0,0,0.013020833333333334,109.62239583333334,0)" xlink:href="#x"/><use transform="matrix(0.013020833333333334,0,0,0.013020833333333334,125.61197916666664,0)" xlink:href="#y"/></g><path d="M218-607c0-325 108-727 258-974h175c-155 315-250 682-250 974 0 265 78 531 250 886H476C306-10 218-315 218-607" id="z"/><path d="M180 0v-1490h510c348 0 508 209 508 474 0 266-160 477-507 477H370V0H180zm190-706h312c236 0 327-133 327-310 0-176-91-307-329-307H370v617" id="A"/><path d="M577 24c-279 0-473-224-473-580 0-354 195-576 474-576 218 0 287 134 324 193h14v-551h180V0H922v-173h-20C865-111 790 24 577 24zm27-161c203 0 314-172 314-421 0-247-108-413-314-413-212 0-317 181-317 413 0 235 108 421 317 421" id="B"/><path d="M537 14c-226 0-379-139-379-422v-710h180v695c0 172 97 275 253 275 160 0 281-109 281-300v-670h181V0H879v-209C806-46 684 14 537 14" id="C"/><path d="M96 279C273-86 346-350 346-607c0-292-95-659-250-974h175c150 246 258 650 258 974 0 297-91 602-258 886H96" id="D"/><g id="c"><use transform="matrix(0.013020833333333334,0,0,0.013020833333333334,0,0)" xlink:href="#z"/><use transform="matrix(0.013020833333333334,0,0,0.013020833333333334,9.7265625,0)" xlink:href="#A"/><use transform="matrix(0.013020833333333334,0,0,0.013020833333333334,26.7578125,0)" xlink:href="#t"/><use transform="matrix(0.013020833333333334,0,0,0.013020833333333334,36.35416666666667,0)" xlink:href="#x"/><use transform="matrix(0.013020833333333334,0,0,0.013020833333333334,52.34375000000001,0)" xlink:href="#B"/><use transform="matrix(0.013020833333333334,0,0,0.013020833333333334,68.671875,0)" xlink:href="#C"/><use transform="matrix(0.013020833333333334,0,0,0.013020833333333334,84.44010416666667,0)" xlink:href="#r"/><use transform="matrix(0.013020833333333334,0,0,0.013020833333333334,99.67447916666667,0)" xlink:href="#p"/><use transform="matrix(0.013020833333333334,0,0,0.013020833333333334,108.3984375,0)" xlink:href="#q"/><use transform="matrix(0.013020833333333334,0,0,0.013020833333333334,114.85677083333334,0)" xlink:href="#x"/><use transform="matrix(0.013020833333333334,0,0,0.013020833333333334,130.84635416666666,0)" xlink:href="#y"/><use transform="matrix(0.013020833333333334,0,0,0.013020833333333334,146.6015625,0)" xlink:href="#D"/></g><path d="M657 26c-323 0-524-166-541-416h195c15 169 171 246 346 246 202 0 356-106 356-265 5-203-294-238-475-293-239-73-380-191-380-389 0-252 224-419 512-419 294 0 499 171 508 396H992c-17-145-151-228-328-228-193 0-321 102-321 242 0 156 175 211 284 241l149 41c160 44 422 134 422 412 0 244-197 432-541 432" id="E"/><path d="M692-1560L212 224H46l480-1784h166" id="F"/><path d="M784 20c-382 0-662-292-662-764 0-473 280-766 662-766s660 293 660 766c0 472-278 764-660 764zm0-176c266 0 475-207 475-588 0-383-209-590-475-590-268 0-477 208-477 590 0 380 209 588 477 588" id="G"/><g id="d"><use transform="matrix(0.010850694444444444,0,0,0.010850694444444444,0,0)" xlink:href="#l"/><use transform="matrix(0.010850694444444444,0,0,0.010850694444444444,13.35720486111111,0)" xlink:href="#E"/><use transform="matrix(0.010850694444444444,0,0,0.010850694444444444,27.61501736111111,0)" xlink:href="#F"/><use transform="matrix(0.010850694444444444,0,0,0.010850694444444444,35.622829861111114,0)" xlink:href="#G"/><use transform="matrix(0.010850694444444444,0,0,0.010850694444444444,52.61501736111112,0)" xlink:href="#E"/></g><path d="M784 20c-382 0-662-292-662-764 0-473 280-766 662-766s660 293 660 766c0 282-99 499-260 629l192 255h-198L1049-33C969 2 880 20 784 20zm-62-486h198l156 205c112-98 183-261 183-483 0-383-209-590-475-590-268 0-477 208-477 590 0 380 209 588 477 588 54 0 106-9 154-25" id="H"/><path d="M180 0v-1490h190v1322h690V0H180" id="I"/><g id="e"><use transform="matrix(0.015190972222222224,0,0,0.015190972222222224,0,0)" xlink:href="#s"/><use transform="matrix(0.015190972222222224,0,0,0.015190972222222224,23.211805555555557,0)" xlink:href="#t"/><use transform="matrix(0.015190972222222224,0,0,0.015190972222222224,34.92404513888889,0)" xlink:href="#n"/><use transform="matrix(0.015190972222222224,0,0,0.015190972222222224,52.39366319444445,0)" xlink:href="#u"/><use transform="matrix(0.015190972222222224,0,0,0.015190972222222224,71.44314236111111,0)" xlink:href="#v"/><use transform="matrix(0.015190972222222224,0,0,0.015190972222222224,89.83940972222223,0)" xlink:href="#H"/><use transform="matrix(0.015190972222222224,0,0,0.015190972222222224,113.62847222222223,0)" xlink:href="#I"/></g><path d="M783 20c-382 0-661-292-661-764 0-473 279-766 661-766 302 0 548 182 601 489h-190c-42-204-217-313-411-313-268 0-476 208-476 590 0 381 209 588 476 588 195 0 369-110 411-313h190c-52 303-296 489-601 489" id="J"/><path d="M628 24c-324 0-524-230-524-574 0-343 198-582 503-582 237 0 487 146 487 559v75H286c9 234 145 362 343 362 132 0 231-58 273-172l174 48C1024-91 857 24 628 24zM287-650h624c-17-190-120-322-304-322-192 0-309 151-320 322" id="K"/><g id="f"><use transform="matrix(0.015190972222222224,0,0,0.015190972222222224,0,0)" xlink:href="#J"/><use transform="matrix(0.015190972222222224,0,0,0.015190972222222224,22.725694444444446,0)" xlink:href="#m"/><use transform="matrix(0.015190972222222224,0,0,0.015190972222222224,30.26041666666667,0)" xlink:href="#q"/><use transform="matrix(0.015190972222222224,0,0,0.015190972222222224,37.79513888888889,0)" xlink:href="#K"/><use transform="matrix(0.015190972222222224,0,0,0.015190972222222224,55.93315972222223,0)" xlink:href="#y"/><use transform="matrix(0.015190972222222224,0,0,0.015190972222222224,74.31423611111111,0)" xlink:href="#p"/></g><path d="M158 0v-1118h175l1 205c55-151 181-225 313-225 147 0 245 90 285 228 53-141 190-228 352-228 194 0 352 125 352 384V0h-181v-749c0-161-105-225-225-225-151 0-243 103-243 244V0H807v-767c0-124-93-207-219-207-131 0-250 92-250 270V0H158" id="L"/><path d="M295 13c-75 0-135-60-135-135s60-135 135-135 135 60 135 135S370 13 295 13" id="M"/><path d="M611 442c-248 0-391-105-460-228l146-94c47 65 117 165 314 165 178 0 307-82 307-266v-224h-17C863-141 792-18 576-18c-268 0-472-195-472-546 0-346 197-568 476-568 216 0 288 133 326 193h17v-179h175V29c0 289-215 413-487 413zm-5-620c203 0 314-146 314-390 0-237-108-403-314-403-213 0-319 180-319 403 0 230 109 390 319 390" id="N"/><path d="M1096 418H916v-591h-14C865-111 790 24 577 24c-279 0-473-224-473-580 0-354 195-576 474-576 218 0 287 134 324 193h20v-179h174V418zM604-137c203 0 314-172 314-421 0-247-108-413-314-413-212 0-317 181-317 413 0 235 108 421 317 421" id="O"/><g id="g"><use transform="matrix(0.013020833333333334,0,0,0.013020833333333334,0,0)" xlink:href="#o"/><use transform="matrix(0.013020833333333334,0,0,0.013020833333333334,14.075520833333334,0)" xlink:href="#r"/><use transform="matrix(0.013020833333333334,0,0,0.013020833333333334,29.309895833333336,0)" xlink:href="#v"/><use transform="matrix(0.013020833333333334,0,0,0.013020833333333334,45.078125,0)" xlink:href="#K"/><use transform="matrix(0.013020833333333334,0,0,0.013020833333333334,60.625,0)" xlink:href="#L"/><use transform="matrix(0.013020833333333334,0,0,0.013020833333333334,83.984375,0)" xlink:href="#n"/><use transform="matrix(0.013020833333333334,0,0,0.013020833333333334,98.95833333333333,0)" xlink:href="#M"/><use transform="matrix(0.013020833333333334,0,0,0.013020833333333334,106.640625,0)" xlink:href="#N"/><use transform="matrix(0.013020833333333334,0,0,0.013020833333333334,122.99479166666667,0)" xlink:href="#t"/><use transform="matrix(0.013020833333333334,0,0,0.013020833333333334,133.03385416666669,0)" xlink:href="#n"/><use transform="matrix(0.013020833333333334,0,0,0.013020833333333334,148.00781250000003,0)" xlink:href="#u"/><use transform="matrix(0.013020833333333334,0,0,0.013020833333333334,164.33593750000003,0)" xlink:href="#v"/><use transform="matrix(0.013020833333333334,0,0,0.013020833333333334,180.10416666666669,0)" xlink:href="#O"/><use transform="matrix(0.013020833333333334,0,0,0.013020833333333334,196.43229166666669,0)" xlink:href="#m"/></g><linearGradient gradientUnits="userSpaceOnUse" id="h" x1="375.58" y1="3822.9" x2="499.87" y2="3962.37"><stop offset="0%" stop-color="#0a35f9"/><stop offset="50%" stop-color="#415fff"/><stop offset="100%" stop-color="#a93ff6"/></linearGradient><g id="i"><use transform="matrix(0.013020833333333334,0,0,0.013020833333333334,0,0)" xlink:href="#H"/><use transform="matrix(0.013020833333333334,0,0,0.013020833333333334,20.390625,0)" xlink:href="#C"/><use transform="matrix(0.013020833333333334,0,0,0.013020833333333334,36.15885416666667,0)" xlink:href="#K"/><use transform="matrix(0.013020833333333334,0,0,0.013020833333333334,51.70572916666667,0)" xlink:href="#t"/><use transform="matrix(0.013020833333333334,0,0,0.013020833333333334,62.161458333333336,0)" xlink:href="#q"/><use transform="matrix(0.013020833333333334,0,0,0.013020833333333334,68.61979166666667,0)" xlink:href="#K"/><use transform="matrix(0.013020833333333334,0,0,0.013020833333333334,84.16666666666667,0)" xlink:href="#o"/></g><g id="j"><use transform="matrix(0.013020833333333334,0,0,0.013020833333333334,0,0)" xlink:href="#o"/><use transform="matrix(0.013020833333333334,0,0,0.013020833333333334,14.075520833333334,0)" xlink:href="#r"/><use transform="matrix(0.013020833333333334,0,0,0.013020833333333334,29.309895833333336,0)" xlink:href="#v"/><use transform="matrix(0.013020833333333334,0,0,0.013020833333333334,45.078125,0)" xlink:href="#K"/><use transform="matrix(0.013020833333333334,0,0,0.013020833333333334,60.625,0)" xlink:href="#L"/><use transform="matrix(0.013020833333333334,0,0,0.013020833333333334,83.984375,0)" xlink:href="#n"/><use transform="matrix(0.013020833333333334,0,0,0.013020833333333334,98.95833333333333,0)" xlink:href="#M"/><use transform="matrix(0.013020833333333334,0,0,0.013020833333333334,106.640625,0)" xlink:href="#N"/><use transform="matrix(0.013020833333333334,0,0,0.013020833333333334,122.99479166666667,0)" xlink:href="#t"/><use transform="matrix(0.013020833333333334,0,0,0.013020833333333334,133.03385416666669,0)" xlink:href="#n"/><use transform="matrix(0.013020833333333334,0,0,0.013020833333333334,148.00781250000003,0)" xlink:href="#u"/><use transform="matrix(0.013020833333333334,0,0,0.013020833333333334,164.33593750000003,0)" xlink:href="#v"/><use transform="matrix(0.013020833333333334,0,0,0.013020833333333334,180.10416666666669,0)" xlink:href="#O"/><use transform="matrix(0.013020833333333334,0,0,0.013020833333333334,196.43229166666669,0)" xlink:href="#m"/></g><path d="M934 0v166H0V0h934" id="P"/><path d="M140 405l46-156c120 36 205 19 263-150l32-93L54-1118h197c107 313 237 620 324 950 87-331 219-637 326-950h196L606 167c-68 178-176 259-334 259-64 0-113-12-132-21" id="Q"/><g id="k"><use transform="matrix(0.013020833333333334,0,0,0.013020833333333334,0,0)" xlink:href="#t"/><use transform="matrix(0.013020833333333334,0,0,0.013020833333333334,10.0390625,0)" xlink:href="#C"/><use transform="matrix(0.013020833333333334,0,0,0.013020833333333334,25.807291666666668,0)" xlink:href="#y"/><use transform="matrix(0.013020833333333334,0,0,0.013020833333333334,41.5625,0)" xlink:href="#p"/><use transform="matrix(0.013020833333333334,0,0,0.013020833333333334,50.286458333333336,0)" xlink:href="#q"/><use transform="matrix(0.013020833333333334,0,0,0.013020833333333334,56.74479166666667,0)" xlink:href="#L"/><use transform="matrix(0.013020833333333334,0,0,0.013020833333333334,80.10416666666667,0)" xlink:href="#K"/><use transform="matrix(0.013020833333333334,0,0,0.013020833333333334,95.65104166666667,0)" xlink:href="#P"/><use transform="matrix(0.013020833333333334,0,0,0.013020833333333334,108.7109375,0)" xlink:href="#L"/><use transform="matrix(0.013020833333333334,0,0,0.013020833333333334,132.0703125,0)" xlink:href="#K"/><use transform="matrix(0.013020833333333334,0,0,0.013020833333333334,147.6171875,0)" xlink:href="#p"/><use transform="matrix(0.013020833333333334,0,0,0.013020833333333334,156.47135416666669,0)" xlink:href="#n"/><use transform="matrix(0.013020833333333334,0,0,0.013020833333333334,171.44531250000003,0)" xlink:href="#B"/><use transform="matrix(0.013020833333333334,0,0,0.013020833333333334,187.77343750000003,0)" xlink:href="#n"/><use transform="matrix(0.013020833333333334,0,0,0.013020833333333334,202.74739583333337,0)" xlink:href="#p"/><use transform="matrix(0.013020833333333334,0,0,0.013020833333333334,211.60156250000006,0)" xlink:href="#n"/><use transform="matrix(0.013020833333333334,0,0,0.013020833333333334,226.5755208333334,0)" xlink:href="#M"/><use transform="matrix(0.013020833333333334,0,0,0.013020833333333334,234.25781250000006,0)" xlink:href="#Q"/><use transform="matrix(0.013020833333333334,0,0,0.013020833333333334,249.1145833333334,0)" xlink:href="#n"/><use transform="matrix(0.013020833333333334,0,0,0.013020833333333334,264.0885416666667,0)" xlink:href="#L"/><use transform="matrix(0.013020833333333334,0,0,0.013020833333333334,287.4479166666667,0)" xlink:href="#m"/></g></defs></g></svg>